<?xml version="1.0" encoding="utf-8"?>
<!-- Generator: Adobe Illustrator 16.0.0, SVG Export Plug-In . SVG Version: 6.00 Build 0)  -->
<!DOCTYPE svg PUBLIC "-//W3C//DTD SVG 1.1//EN" "http://www.w3.org/Graphics/SVG/1.1/DTD/svg11.dtd">
<svg version="1.1" id="Layer_1" xmlns="http://www.w3.org/2000/svg" xmlns:xlink="http://www.w3.org/1999/xlink" x="0px" y="0px"
	 width="21.547px" height="27.161px" viewBox="0 0 21.547 27.161" enable-background="new 0 0 21.547 27.161" xml:space="preserve">
<g>
	<path fill="#FFFFFF" d="M0.65,14.781L19.334,26.93c0.438,0.286,1,0.308,1.463,0.057c0.461-0.25,0.75-0.733,0.75-1.257V1.431
		c0-0.522-0.289-1.007-0.75-1.256C20.582,0.06,20.351,0,20.113,0c-0.271,0-0.545,0.076-0.779,0.229L0.65,12.379
		C0.244,12.643,0,13.096,0,13.58C-0.004,14.064,0.244,14.516,0.65,14.781z"/>
</g>
<path fill="#CCCCCC" d="M12.186,6.716c-3.718,2.401-8.378,5.581-9.037,6.24c-0.659,0.659-0.583,1.042,0.749,1.816
	C4.315,12.333,12.186,6.716,12.186,6.716z"/>
</svg>
