<?xml version="1.0" encoding="utf-8"?>
<!-- Generator: Adobe Illustrator 16.0.0, SVG Export Plug-In . SVG Version: 6.00 Build 0)  -->
<!DOCTYPE svg PUBLIC "-//W3C//DTD SVG 1.1//EN" "http://www.w3.org/Graphics/SVG/1.1/DTD/svg11.dtd">
<svg version="1.1" id="Layer_1" xmlns="http://www.w3.org/2000/svg" xmlns:xlink="http://www.w3.org/1999/xlink" x="0px" y="0px"
	 width="21.547px" height="27.161px" viewBox="0 0 21.547 27.161" enable-background="new 0 0 21.547 27.161" xml:space="preserve">
<g>
	<g>
		<g>
			<path fill="#EC0088" d="M20.896,12.38L2.213,0.231c-0.438-0.286-1-0.308-1.463-0.057C0.289,0.424,0,0.907,0,1.431V25.73
				c0,0.523,0.289,1.007,0.75,1.256c0.215,0.115,0.447,0.175,0.684,0.175c0.271,0,0.545-0.077,0.779-0.229l18.684-12.15
				c0.406-0.264,0.65-0.717,0.65-1.201C21.551,13.096,21.303,12.645,20.896,12.38z"/>
		</g>
		<path fill="#EC5EB0" d="M8.963,6.672C2.795,2.175,2.096,1.808,1.715,2.189C1.324,2.581,1.443,4.835,1.469,11.73
			c0.445-3.913,0.883-7.102,2.23-7.102C5.049,4.628,8.963,6.672,8.963,6.672z"/>
	</g>
</g>
</svg>
