<?xml version="1.0" encoding="utf-8"?>
<!-- Generator: Adobe Illustrator 16.0.0, SVG Export Plug-In . SVG Version: 6.00 Build 0)  -->
<!DOCTYPE svg PUBLIC "-//W3C//DTD SVG 1.1//EN" "http://www.w3.org/Graphics/SVG/1.1/DTD/svg11.dtd">
<svg version="1.1" id="Layer_1" xmlns="http://www.w3.org/2000/svg" xmlns:xlink="http://www.w3.org/1999/xlink" x="0px" y="0px"
	 width="24.996px" height="30px" viewBox="0 0 24.996 30" enable-background="new 0 0 24.996 30" xml:space="preserve">
<g>
	<g>
		<path fill="#076A8A" d="M14.678,5.195V3.981c1.045-0.39,1.732-1.054,1.732-1.807C16.41,0.973,14.658,0,12.498,0
			S8.585,0.974,8.585,2.175c0,0.753,0.688,1.417,1.733,1.807v1.214C4.455,6.228,0,11.342,0,17.502C-0.001,24.402,5.595,30,12.498,30
			s12.499-5.598,12.499-12.5C24.996,11.341,20.541,6.227,14.678,5.195z M12.498,26.195c-4.802,0-8.695-3.893-8.695-8.694
			c0-4.801,3.893-8.695,8.695-8.695c4.802,0,8.696,3.893,8.696,8.695S17.3,26.195,12.498,26.195z"/>
		<path fill="#076A8A" d="M12.498,10.436c-0.48,0-0.87,0.39-0.87,0.87V17.5c0,0.48,0.39,0.869,0.87,0.869s0.87-0.389,0.87-0.869
			v-6.195C13.367,10.825,12.978,10.436,12.498,10.436z"/>
	</g>
</g>
</svg>
