<?xml version="1.0" encoding="utf-8"?>
<!-- Generator: Adobe Illustrator 16.0.0, SVG Export Plug-In . SVG Version: 6.00 Build 0)  -->
<!DOCTYPE svg PUBLIC "-//W3C//DTD SVG 1.1//EN" "http://www.w3.org/Graphics/SVG/1.1/DTD/svg11.dtd">
<svg version="1.1" id="Layer_1" xmlns="http://www.w3.org/2000/svg" xmlns:xlink="http://www.w3.org/1999/xlink" x="0px" y="0px"
	 width="200px" height="50px" viewBox="0 0 200 50" enable-background="new 0 0 200 50" xml:space="preserve">
<path fill="#004573" d="M200,45.406c0,2.573-2.086,4.66-4.66,4.66H8.648c-2.574,0-4.66-2.087-4.66-4.66V8.648
	c0-2.574,2.086-4.66,4.66-4.66H195.34c2.574,0,4.66,2.086,4.66,4.66V45.406z"/>
<path fill="#FFFFFF" d="M196.01,41.416c0,2.573-2.086,4.66-4.66,4.66H4.66c-2.574,0-4.66-2.087-4.66-4.66V4.66
	C0,2.086,2.086,0,4.66,0H191.35c2.574,0,4.66,2.086,4.66,4.66V41.416z"/>
<text transform="matrix(1 0 0 1 6.998 -37.1978)" fill="#EC0088" font-family="'RobotoSlab-Regular'" font-size="35.4592">continue</text>
<g>
	<g>
		<path fill="#EC0088" d="M22.34,32.39c1.058,0,1.988-0.326,2.793-0.979c0.803-0.653,1.206-1.454,1.206-2.404h2.866l0.032,0.098
			c0.054,1.511-0.618,2.852-2.016,4.022c-1.398,1.171-3.024,1.756-4.881,1.756c-2.547,0-4.492-0.83-5.835-2.492
			c-1.344-1.662-2.016-3.75-2.016-6.265v-0.681c0-2.493,0.674-4.573,2.024-6.241c1.349-1.667,3.292-2.5,5.827-2.5
			c1.403,0,2.663,0.232,3.78,0.695c1.117,0.465,2.042,1.102,2.776,1.91l0.146,3.886H26.5l-0.696-2.752
			c-0.377-0.367-0.863-0.664-1.457-0.891c-0.594-0.227-1.263-0.34-2.008-0.34c-1.672,0-2.868,0.602-3.585,1.805
			s-1.076,2.679-1.076,4.427v0.681c0,1.792,0.356,3.283,1.068,4.476C19.458,31.793,20.656,32.39,22.34,32.39z"/>
		<path fill="#EC0088" d="M32.36,25.623c0-2.59,0.702-4.724,2.104-6.402s3.308-2.517,5.714-2.517c2.417,0,4.33,0.836,5.739,2.509
			c1.408,1.673,2.113,3.81,2.113,6.411v0.356c0,2.612-0.702,4.749-2.105,6.411c-1.403,1.662-3.308,2.492-5.714,2.492
			c-2.428,0-4.344-0.833-5.747-2.5c-1.403-1.668-2.104-3.802-2.104-6.403V25.623z M35.55,25.979c0,1.856,0.391,3.39,1.173,4.598
			c0.782,1.209,1.945,1.813,3.488,1.813c1.511,0,2.661-0.604,3.448-1.813c0.788-1.208,1.182-2.741,1.182-4.598v-0.356
			c0-1.834-0.394-3.362-1.182-4.581c-0.788-1.22-1.948-1.83-3.48-1.83s-2.687,0.61-3.464,1.83c-0.777,1.219-1.166,2.747-1.166,4.581
			V25.979z"/>
		<path fill="#EC0088" d="M50.475,32.503l2.639-0.453V19.536l-2.639-0.454v-2.056h5.488l0.227,2.606
			c0.583-0.928,1.313-1.648,2.193-2.161c0.88-0.512,1.88-0.769,3.003-0.769c1.889,0,3.351,0.553,4.387,1.659
			c1.036,1.107,1.555,2.814,1.555,5.124v8.564l2.638,0.453v2.04h-8.466v-2.04l2.639-0.453v-8.499c0-1.544-0.305-2.639-0.915-3.286
			c-0.61-0.648-1.541-0.971-2.792-0.971c-0.917,0-1.729,0.221-2.437,0.664c-0.707,0.442-1.271,1.046-1.691,1.813v10.28l2.639,0.453
			v2.04h-8.466V32.503z"/>
		<path fill="#EC0088" d="M77.849,12.801v4.226h3.318v2.363h-3.318v10.635c0,0.821,0.169,1.398,0.51,1.733
			c0.34,0.334,0.79,0.501,1.352,0.501c0.28,0,0.596-0.023,0.947-0.073c0.351-0.048,0.645-0.1,0.883-0.153l0.437,2.186
			c-0.302,0.194-0.745,0.353-1.328,0.478c-0.583,0.124-1.166,0.186-1.748,0.186c-1.295,0-2.326-0.391-3.092-1.173
			c-0.767-0.782-1.149-2.01-1.149-3.684V19.39h-2.768v-2.363h2.768v-4.226H77.849z"/>
		<path fill="#EC0088" d="M84.421,32.503l2.639-0.453V19.536l-2.639-0.454v-2.056h5.828V32.05l2.639,0.453v2.04h-8.466V32.503z
			 M90.249,12.543H87.06V9.289h3.189V12.543z"/>
		<path fill="#EC0088" d="M94.847,32.503l2.639-0.453V19.536l-2.639-0.454v-2.056h5.487l0.227,2.606
			c0.583-0.928,1.313-1.648,2.194-2.161c0.879-0.512,1.88-0.769,3.003-0.769c1.888,0,3.351,0.553,4.386,1.659
			c1.037,1.107,1.555,2.814,1.555,5.124v8.564l2.639,0.453v2.04h-8.466v-2.04l2.639-0.453v-8.499c0-1.544-0.306-2.639-0.915-3.286
			c-0.61-0.648-1.541-0.971-2.793-0.971c-0.917,0-1.729,0.221-2.437,0.664c-0.706,0.442-1.271,1.046-1.691,1.813v10.28l2.639,0.453
			v2.04h-8.466V32.503z"/>
		<path fill="#EC0088" d="M129.181,31.952c-0.55,0.939-1.261,1.663-2.129,2.17c-0.868,0.506-1.87,0.76-3.003,0.76
			c-1.899,0-3.383-0.608-4.451-1.828s-1.604-3.119-1.604-5.698v-7.819l-2.007-0.454v-2.056h2.007h3.189v10.361
			c0,1.867,0.275,3.151,0.825,3.853c0.551,0.702,1.409,1.053,2.574,1.053c1.133,0,2.069-0.229,2.81-0.688
			c0.738-0.458,1.297-1.108,1.675-1.95V19.536l-2.347-0.454v-2.056h2.347h3.188V32.05l2.008,0.453v2.04h-4.873L129.181,31.952z"/>
		<path fill="#EC0088" d="M144.786,34.882c-2.438,0-4.379-0.812-5.819-2.436s-2.161-3.731-2.161-6.321v-0.712
			c0-2.494,0.741-4.568,2.226-6.225c1.484-1.656,3.24-2.484,5.269-2.484c2.354,0,4.137,0.712,5.351,2.136
			c1.215,1.425,1.822,3.325,1.822,5.698v1.992h-11.365l-0.049,0.081c0.033,1.684,0.46,3.067,1.279,4.152
			c0.82,1.085,1.97,1.627,3.448,1.627c1.079,0,2.025-0.153,2.841-0.461c0.814-0.308,1.519-0.731,2.113-1.271l1.246,2.072
			c-0.626,0.604-1.454,1.114-2.485,1.53C147.471,34.675,146.232,34.882,144.786,34.882z M144.3,19.212
			c-1.067,0-1.98,0.451-2.735,1.352c-0.755,0.901-1.22,2.032-1.393,3.391l0.033,0.082h8.078v-0.421c0-1.252-0.335-2.299-1.004-3.141
			S145.617,19.212,144.3,19.212z"/>
	</g>
	<g>
		<g>
			<g>
				<path fill="#EC0088" d="M185.448,24.8l-18.684-12.149c-0.438-0.286-1-0.308-1.463-0.057c-0.461,0.25-0.749,0.733-0.749,1.257
					V38.15c0,0.524,0.288,1.007,0.749,1.256c0.214,0.116,0.448,0.175,0.683,0.175c0.272,0,0.545-0.077,0.78-0.23l18.683-12.15
					c0.406-0.264,0.651-0.716,0.651-1.201C186.101,25.516,185.854,25.065,185.448,24.8z"/>
			</g>
			<path fill="#EC5EB0" d="M173.513,19.092c-6.167-4.497-6.866-4.864-7.247-4.483c-0.391,0.392-0.272,2.646-0.247,9.541
				c0.447-3.913,0.884-7.102,2.231-7.102C169.599,17.048,173.513,19.092,173.513,19.092z"/>
		</g>
	</g>
</g>
</svg>
