<?xml version="1.0" encoding="utf-8"?>
<!-- Generator: Adobe Illustrator 16.0.0, SVG Export Plug-In . SVG Version: 6.00 Build 0)  -->
<!DOCTYPE svg PUBLIC "-//W3C//DTD SVG 1.1//EN" "http://www.w3.org/Graphics/SVG/1.1/DTD/svg11.dtd">
<svg version="1.1" id="Layer_1" xmlns="http://www.w3.org/2000/svg" xmlns:xlink="http://www.w3.org/1999/xlink" x="0px" y="0px"
	 width="67.007px" height="50px" viewBox="104.366 0 67.007 50" enable-background="new 104.366 0 67.007 50" xml:space="preserve">
<path fill="#737373" d="M171.373,45.406c0,2.572-2.086,4.66-4.66,4.66h-53.698c-2.574,0-4.66-2.088-4.66-4.66V8.648
	c0-2.574,2.086-4.66,4.66-4.66h53.698c2.574,0,4.66,2.086,4.66,4.66V45.406z"/>
<path fill="#3864A3" d="M167.383,41.416c0,2.572-2.086,4.66-4.66,4.66h-53.696c-2.574,0-4.66-2.088-4.66-4.66V4.66
	c0-2.574,2.086-4.66,4.66-4.66h53.696c2.574,0,4.66,2.086,4.66,4.66V41.416z"/>
<text transform="matrix(1 0 0 1 110.8047 -55.4541)" fill="#EC0088" font-family="'RobotoSlab-Regular'" font-size="33.2972">f</text>
<g enable-background="new    ">
	<path fill="#FFFFFF" d="M117.976,21.326v-3.649h4.226v-3.426c0-2.883,0.753-5.111,2.262-6.688c1.508-1.576,3.613-2.362,6.313-2.362
		c0.565,0,1.139,0.045,1.711,0.137c0.577,0.093,1.214,0.222,1.914,0.388l-0.601,3.75c-0.301-0.066-0.662-0.125-1.087-0.174
		c-0.426-0.05-0.863-0.075-1.313-0.075c-1.45,0-2.525,0.429-3.226,1.287c-0.699,0.859-1.049,2.105-1.049,3.738v3.426h5.65v3.649
		h-5.65v19.549h-4.925V21.326H117.976z"/>
</g>
<g>
	<g>
		<g>
			<path fill="#FFFFFF" d="M156.748,22.277l-11.85-7.705c-0.277-0.182-0.635-0.195-0.928-0.037
				c-0.292,0.159-0.475,0.465-0.475,0.797v15.409c0,0.332,0.183,0.639,0.475,0.796c0.136,0.075,0.283,0.112,0.434,0.112
				c0.172,0,0.346-0.05,0.494-0.146l11.85-7.704c0.256-0.167,0.412-0.454,0.412-0.761C157.161,22.731,157.004,22.445,156.748,22.277
				z"/>
		</g>
		<path fill="#CCCCCC" d="M149.178,18.657c-3.911-2.852-4.354-3.084-4.596-2.843c-0.248,0.25-0.173,1.678-0.157,6.051
			c0.284-2.481,0.563-4.503,1.415-4.503C146.695,17.36,149.178,18.657,149.178,18.657z"/>
	</g>
</g>
</svg>
