<?xml version="1.0" encoding="utf-8"?>
<!-- Generator: Adobe Illustrator 16.0.0, SVG Export Plug-In . SVG Version: 6.00 Build 0)  -->
<!DOCTYPE svg PUBLIC "-//W3C//DTD SVG 1.1//EN" "http://www.w3.org/Graphics/SVG/1.1/DTD/svg11.dtd">
<svg version="1.1" id="Layer_1" xmlns="http://www.w3.org/2000/svg" xmlns:xlink="http://www.w3.org/1999/xlink" x="0px" y="0px"
	 width="200px" height="200px" viewBox="0 0 200 200" enable-background="new 0 0 200 200" xml:space="preserve">
<path fill="#0064A6" d="M135.337,108.639L67.132,64.288c-1.604-1.042-3.652-1.125-5.339-0.212c-1.683,0.915-2.732,2.675-2.732,4.592
	v88.701c0,1.914,1.048,3.676,2.732,4.591c0.78,0.423,1.637,0.632,2.492,0.632c0.993,0,1.983-0.283,2.847-0.845l68.205-44.351
	c1.482-0.963,2.375-2.613,2.375-4.381C137.712,111.247,136.817,109.602,135.337,108.639z"/>
<path fill="#4E9FD3" d="M91.767,87.802C69.258,71.383,66.703,70.043,65.312,71.435c-1.426,1.426-0.995,9.658-0.9,34.825
	c1.626-14.281,3.222-25.927,8.142-25.927C77.474,80.333,91.767,87.802,91.767,87.802z"/>
<g>
	<path fill="#0064A6" d="M64.122,56.66c-0.199-0.13-0.268-0.239-0.21-0.326l2.323-3.539l-0.2-0.131l3.673-5.161
		c1.347-2.051,2.274-3.777,2.783-5.177c0.108-0.308,0.256-0.605,0.444-0.893c0.188-0.285,0.391-0.5,0.61-0.641l2.736-4.167
		c-0.023-0.016-0.048-0.095-0.079-0.241c0.029-0.044,0.143-0.111,0.344-0.2c0.202-0.088,0.367-0.233,0.497-0.431
		c0.13-0.199,0.164-0.406,0.1-0.621c-0.064-0.216-0.023-0.435,0.122-0.655c0.175,0.116,0.535,0.289,1.079,0.52
		c0.542,0.23,1.052,0.502,1.526,0.813c0.474,0.312,0.86,0.589,1.157,0.831c0.299,0.242,0.504,0.448,0.614,0.615
		c0.192,0.285,0.2,0.56,0.026,0.824l-0.25,0.309c-0.188,0.287-0.278,0.639-0.268,1.056l-0.315,0.409
		c-0.348,0.528-0.635,1.074-0.86,1.636c-0.226,0.561-0.76,1.48-1.599,2.76c-0.84,1.279-2,2.852-3.479,4.72
		c-1.479,1.87-2.886,3.818-4.217,5.846l-2.191,3.625l-0.13,0.199c-0.13,0.199-0.269,0.312-0.415,0.344l-3.69-2.235L64.122,56.66z
		 M67.177,54.027l0.572,0.139c0.088,0.058,0.095,0.142,0.023,0.252l-1.35-0.176l-1.304,1.984c0.088,0.153,0.188,0.265,0.299,0.338
		l2.358,1.311c0.276-0.419,0.357-0.665,0.247-0.736c-0.11-0.072-0.268-0.097-0.471-0.073c-0.205,0.023-0.356,0.002-0.457-0.063
		c-0.099-0.065-0.153-0.116-0.16-0.154l0.087-0.132c0.189-0.001,0.413,0.01,0.665,0.034c0.251,0.023,0.407-0.009,0.464-0.097
		c-0.396-0.261-1.008-0.458-1.834-0.591l0.174-0.264c-0.139,0.067-0.286,0.097-0.439,0.091c-0.222-0.145-0.295-0.272-0.223-0.382
		c0.05-0.029,0.113-0.052,0.186-0.068c0.139-0.066,0.223-0.121,0.252-0.165c-0.044,0.066,0.011,0.149,0.166,0.251l1.11,0.398
		l-0.09,0.131c0.036-0.007,0.259,0.013,0.669,0.061l0.244,0.35c0.154,0.102,0.3,0.048,0.438-0.162c0.138-0.21,0.252-0.41,0.346-0.6
		c0.094-0.191,0.052-0.344-0.123-0.46l-0.396-0.118l0.186-0.209c0.058-0.088-0.012-0.197-0.212-0.327
		c0.138-0.162,0.258-0.225,0.362-0.188c0.103,0.035,0.207,0.072,0.307,0.108c0.33,0.122,0.666-0.053,1.007-0.523
		c0.013-0.118-0.024-0.205-0.111-0.263c-0.088-0.057-0.24-0.078-0.456-0.063c-0.217,0.017-0.382,0.018-0.5,0.003
		c0.109-0.118,0.251-0.189,0.428-0.216c0.175-0.027,0.353-0.06,0.536-0.097c-0.542-0.229-1.027-0.358-1.452-0.385l0.054-0.153
		c0.102-0.155,0.247-0.186,0.439-0.092c0.189,0.094,0.4,0.184,0.627,0.27c0.652,0.207,1.167,0.025,1.543-0.548
		c-0.177-0.116-0.421-0.142-0.731-0.077c-0.311,0.064-0.544,0.108-0.701,0.131c-0.158,0.023-0.314-0.018-0.468-0.118l-0.066-0.043
		c-0.023-0.016-0.037-0.04-0.045-0.078c0.315-0.046,0.551-0.094,0.712-0.146c0.292-0.061,0.463-0.106,0.515-0.136
		c-0.265-0.173-0.748-0.316-1.446-0.429c-0.701-0.112-1.069-0.164-1.105-0.156l-0.316,0.407c-0.203,0.309-0.237,0.506-0.104,0.595
		c0.333-0.221,0.578-0.282,0.733-0.182l-0.239,0.364c0.146-0.03,0.264-0.017,0.352,0.042c-0.13,0.198-0.365,0.243-0.703,0.13
		c-0.337-0.11-0.592-0.033-0.766,0.232c-0.145,0.22-0.14,0.403,0.015,0.553c0.154,0.147,0.196,0.278,0.124,0.388
		C67.125,53.962,67.131,53.998,67.177,54.027z M68.426,50.826c0.309,0.203,0.942,0.176,1.899-0.079
		c0.182-0.038,0.28-0.068,0.296-0.091l0.087-0.132l-1.89-0.294L68.426,50.826z M71.779,51.701c0.203-0.309,0.226-0.514,0.072-0.616
		c-0.243-0.16-0.736-0.176-1.482-0.05c-0.744,0.127-1.131,0.211-1.161,0.254c0.066,0.044,0.245,0.083,0.538,0.117
		c0.293,0.035,0.529,0.071,0.71,0.11c0.18,0.04,0.344,0.076,0.495,0.112c0.15,0.037,0.288,0.111,0.417,0.228
		C71.497,51.975,71.635,51.923,71.779,51.701z M69.852,49.016c-0.073,0.112,0.057,0.274,0.388,0.491l-0.109,0.166
		c-0.353-0.233-0.631-0.194-0.834,0.115l-0.044,0.066c-0.014,0.023-0.019,0.052-0.01,0.088c0.382,0.188,1.406,0.355,3.077,0.505
		l0.472,0.073c0.16-0.243,0.293-0.566,0.399-0.968c-0.175,0.074-0.425,0.116-0.746,0.125c-0.322,0.009-0.527-0.016-0.614-0.073
		c-0.089-0.059-0.128-0.108-0.117-0.148c0.011-0.04,0.008-0.096-0.007-0.169c0.396,0.07,0.944,0.004,1.646-0.199
		c-0.454,0.019-0.889-0.11-1.308-0.384c0.636,0.038,1.097-0.015,1.38-0.159c0.284-0.145,0.522-0.289,0.71-0.433
		c0.189-0.144,0.417-0.301,0.688-0.472c-0.138,0.067-0.407,0.105-0.805,0.11c-0.399,0.005-0.814,0.025-1.245,0.058
		c-1.126,0.081-1.725,0.177-1.798,0.288l-0.087,0.132c0.035-0.006,0.115,0.004,0.236,0.038c0.12,0.032,0.184,0.066,0.193,0.102
		c0.007,0.037-0.024,0.111-0.097,0.22c-0.521-0.025-0.924-0.085-1.21-0.177C70.035,48.616,69.982,48.818,69.852,49.016z
		 M77.4,40.907l-0.244-0.206c-0.308-0.203-0.635-0.33-0.979-0.383c-0.345-0.052-0.686-0.157-1.022-0.316
		c-0.5,0.618-0.932,1.203-1.293,1.753c-0.768,1.169-1.201,2.02-1.299,2.555c0.146-0.029,0.263-0.017,0.353,0.042
		c0.086,0.058,0.218,0.065,0.39,0.019c0.171-0.045,0.358-0.104,0.564-0.174c0.204-0.071,0.399-0.139,0.584-0.208
		c0.186-0.067,0.327-0.1,0.421-0.102c-0.173,0.264-0.361,0.417-0.563,0.459c-0.201,0.041-0.35,0.077-0.448,0.107
		c-0.098,0.03-0.199,0.122-0.299,0.277c0.358-0.018,0.711,0.057,1.06,0.222c0.349,0.166,0.703,0.242,1.06,0.224l0.08,0.242
		l0.251-0.167l0.1,0.209c-0.228,0.104-0.742,0.048-1.548-0.166c-1.488-0.377-2.265-0.54-2.33-0.487
		c-0.579,0.882-0.995,1.587-1.247,2.115c-0.253,0.528-0.345,0.814-0.279,0.856c0.088,0.059,0.314,0.05,0.681-0.025
		c0.364-0.076,0.631-0.146,0.799-0.208c0.168-0.063,0.288-0.103,0.362-0.118l0.046,0.22c0.108-0.118,0.262-0.183,0.459-0.195
		c0.198-0.012,0.391-0.02,0.581-0.021c0.548-0.019,0.88-0.115,0.996-0.292c-0.505-0.144-1.011-0.214-1.516-0.215
		c-0.505,0-0.845-0.058-1.021-0.174c-0.287-0.189-0.372-0.369-0.256-0.546c0.283-0.288,0.655-0.447,1.116-0.476
		c0.46-0.028,0.884-0.026,1.272,0.006l-0.087,0.133c0.088-0.037,0.235-0.058,0.446-0.063c0.208-0.004,0.414-0.019,0.619-0.043
		c0.585-0.025,0.92-0.106,1.007-0.238l0.76-1.158c-0.155-0.101-0.565-0.126-1.229-0.073c-0.666,0.052-1.007,0.089-1.021,0.111
		c0.217-0.331,0.757-0.48,1.621-0.45l0.087-0.133c-0.167,0.016-0.306-0.012-0.417-0.085c-0.111-0.073-0.159-0.119-0.143-0.142
		c0.044-0.066,0.312-0.031,0.807,0.105c0.495,0.136,0.753,0.209,0.775,0.225l0.521-0.794c-0.441-0.29-1.18-0.365-2.218-0.226
		c-0.336,0.032-0.654,0.108-0.952,0.226l0.614,0.215c0.088,0.058,0.104,0.131,0.046,0.219c-0.371,0.229-0.844,0.157-1.417-0.22
		l-0.231-0.152c0.42-0.545,1.314-0.777,2.685-0.701c0.482,0.034,0.931,0.069,1.35,0.107c0.416,0.036,0.69-0.044,0.821-0.243
		c0.13-0.198,0.24-0.427,0.33-0.683c0.089-0.255,0.102-0.406,0.035-0.45c-0.175,0.074-0.325,0.087-0.45,0.037
		c-0.125-0.05-0.267-0.001-0.427,0.146l0.347-0.529c-0.109,0.023-0.217,0.103-0.322,0.239c-0.105,0.136-0.228,0.213-0.366,0.232
		c-0.139,0.02-0.375-0.017-0.709-0.11c-0.334-0.092-0.582-0.065-0.741,0.082l0.076-0.187c0.072-0.11,0.143-0.159,0.213-0.144
		c0.068,0.014,0.145,0.032,0.226,0.054C77.112,41.13,77.283,41.084,77.4,40.907z M71.41,50.606c-0.322,0.01-0.497,0.037-0.527,0.081
		c-0.029,0.045-0.032,0.074-0.01,0.088c0.022,0.014,0.046,0.037,0.071,0.071c0.025,0.033,0.058,0.03,0.099-0.005
		c0.04-0.038,0.104-0.027,0.192,0.03L71.41,50.606z M75.779,46.186c-0.132-0.087-0.498-0.106-1.097-0.059
		c-1.149,0.067-1.751,0.145-1.81,0.232c0.35,0.137,0.752,0.25,1.198,0.337c0.445,0.088,0.842,0.183,1.187,0.283L75.779,46.186z
		 M75.308,41.569l0.935,0.235l-0.175,0.265c-0.028,0.045-0.107,0.033-0.236-0.037c-0.128-0.07-0.271-0.139-0.429-0.21
		c-0.158-0.072-0.337-0.174-0.534-0.303c0.144-0.221,0.341-0.376,0.588-0.465c0.248-0.089,0.487-0.09,0.715-0.005L76.14,41.17
		c-0.073,0.11-0.223,0.17-0.449,0.178c-0.228,0.009-0.355,0.037-0.384,0.081L75.308,41.569z M75.295,39.715
		c0.583-0.12,0.925-0.15,1.024-0.085c0.101,0.066,0.064,0.23-0.11,0.495c0.19,0,0.453,0.045,0.784,0.138
		c0.333,0.093,0.663,0.183,0.985,0.268c0.85,0.243,1.333,0.276,1.449,0.099c0.319-0.484,0.43-0.75,0.334-0.798
		c-0.096-0.046-0.18-0.063-0.252-0.046c-0.074,0.015-0.133,0.024-0.182,0.024c-0.047,0-0.097,0.015-0.148,0.044l0.087-0.132
		l-0.602,0.125l-0.067-0.187l-0.504,0.189l-0.067-0.185c-0.232,0.162-0.471,0.235-0.712,0.219c-0.241-0.017-0.508,0.005-0.8,0.067
		c0.145-0.221,0.781-0.34,1.912-0.354c1.129-0.016,1.768-0.133,1.912-0.354c0.376-0.574,0.57-1.061,0.581-1.464l-0.711,0.291
		l0.24-0.364c-0.059-0.006-0.147,0.006-0.263,0.04s-0.239,0.063-0.366,0.091c-0.13,0.026-0.241,0.054-0.341,0.084
		c-0.099,0.031-0.158,0.038-0.181,0.023c0.072-0.11,0.169-0.15,0.291-0.118c0.12,0.032,0.253-0.061,0.398-0.282
		c-1.186-0.021-1.905-0.114-2.158-0.28c-0.253-0.167-0.375-0.309-0.361-0.426c-0.292,0.061-0.611,0.355-0.958,0.885l-0.683,1.255
		c-0.058,0.089-0.15,0.218-0.277,0.386C75.424,39.532,75.339,39.649,75.295,39.715z M78.322,37.774
		c-0.116,0.177-0.285,0.287-0.504,0.333l-0.548,0.113c0.375,0.246,0.809,0.39,1.302,0.429c0.496,0.042,0.963,0.159,1.402,0.353
		c-0.203,0.309-0.449,0.368-0.734,0.181l0.13-0.198c-0.475,0.098-1.014,0.044-1.62-0.165c-0.604-0.208-0.986-0.361-1.139-0.463
		c0.174-0.265,0.38-0.414,0.622-0.443c0.241-0.03,0.442-0.048,0.604-0.053C78,37.855,78.16,37.826,78.322,37.774z M78.286,35.809
		c-0.103,0.06-0.181,0.095-0.235,0.106c-0.055,0.012-0.108,0.032-0.159,0.062c-0.101,0.06-0.239,0.221-0.413,0.486
		c0.196-0.061,0.436-0.1,0.717-0.12c0.281-0.021,0.487-0.083,0.62-0.185L78.286,35.809z M79.897,37.104
		c-0.053-0.161-0.167-0.299-0.343-0.414c-0.221-0.145-0.451-0.154-0.69-0.029c-0.074,0.016-0.162,0.006-0.265-0.031
		c-0.206-0.07-0.491-0.069-0.855,0.006l1.102,0.487l0.349-0.102L79.897,37.104z"/>
	<path fill="#0064A6" d="M84.284,38.139c0.26-0.397,0.557-0.706,0.893-0.929c0.331,0.218,0.503,0.411,0.52,0.579
		c0.002,0.285,0.152,0.525,0.451,0.721c0.296,0.195,0.682,0.377,1.155,0.546c0.472,0.168,0.864,0.354,1.172,0.557
		s0.482,0.419,0.521,0.649s0.018,0.478-0.06,0.741c-0.07,0.396-0.236,0.792-0.498,1.189c-0.261,0.397-0.491,0.735-0.689,1.015
		c-0.201,0.279-0.433,0.551-0.702,0.816c-0.646,0.648-1.267,0.967-1.858,0.957c-1.114-0.131-1.865-0.127-2.255,0.01
		c-0.392,0.138-0.652,0.306-0.782,0.505s-0.39,0.296-0.781,0.292c-0.392-0.005-0.688-0.072-0.886-0.202
		c-0.375-0.247-0.453-0.535-0.236-0.866c0.304-0.463,0.763-0.982,1.377-1.557c0.613-0.575,0.958-0.871,1.031-0.885
		c0.073-0.016,0.181,0,0.323,0.046c0.143,0.046,0.251,0.016,0.323-0.096c0.102-0.155,0.042-0.353-0.18-0.591
		c-0.419-0.465-0.601-0.742-0.544-0.831l0.535-0.453L84.284,38.139z M81.2,44.634c-0.212,0.082-0.36,0.189-0.446,0.322
		c0.175,0.116,0.39,0.099,0.646-0.049L81.2,44.634z M81.899,44.69c0.252,0.023,0.424-0.036,0.518-0.18
		c0.094-0.143,0.065-0.266-0.089-0.367c-0.243-0.16-0.523,0.004-0.841,0.489C81.509,44.647,81.646,44.667,81.899,44.69z
		 M83.765,44.046l-1.025-0.672l-0.483,0.156l0.563,0.37L83.765,44.046z M84.5,44.15c0.25,0.006,0.45,0.011,0.604,0.018
		c0.374,0.057,0.59,0.041,0.647-0.047l0.934-1.422c-0.331-0.217-0.746-0.427-1.244-0.627c-0.008,0.058,0.059,0.197,0.201,0.416
		c0.258,0.422,0.352,0.689,0.279,0.8c-0.116,0.176-0.275,0.261-0.476,0.255c-0.202-0.005-0.417-0.038-0.647-0.094
		c-0.23-0.058-0.453-0.115-0.666-0.177c-0.213-0.06-0.396-0.046-0.549,0.043c0.059,0.007,0.164,0.061,0.32,0.162
		c0.155,0.1,0.265,0.222,0.332,0.36C84.302,43.973,84.391,44.078,84.5,44.15z M84.237,41.09l-0.199-0.13
		c-0.16,0.242-0.187,0.429-0.084,0.559L84.237,41.09z M85.04,42.753c0.101-0.154,0.058-0.293-0.128-0.416
		c-0.188-0.124-0.265-0.236-0.229-0.339c-0.111-0.072-0.195-0.064-0.252,0.023c-0.059,0.088-0.08,0.193-0.064,0.313
		c0.017,0.122-0.034,0.269-0.15,0.446c0.088,0.057,0.233,0.09,0.435,0.095C84.852,42.882,84.983,42.842,85.04,42.753z
		 M84.373,39.949l0.585,0.335c0.285,0.188,0.386,0.349,0.299,0.481c0.189,0,0.484,0.066,0.885,0.202
		c0.398,0.137,0.667,0.172,0.808,0.104l-0.431-0.282C85.659,40.225,84.944,39.944,84.373,39.949z M86.951,40.742
		c0.486,0.099,0.779,0.077,0.873-0.067c0.094-0.144,0.16-0.266,0.195-0.369c0.036-0.101-0.013-0.197-0.146-0.283
		c-0.132-0.087-0.342-0.201-0.628-0.342c-0.285-0.141-0.594-0.273-0.924-0.395c-0.807-0.309-1.283-0.352-1.427-0.131
		c-0.174,0.265-0.173,0.454,0.004,0.57C85.779,40.303,86.463,40.643,86.951,40.742z M86.327,41.657l0.157,0.34
		c0.11,0.072,0.255,0.127,0.435,0.167c0.18,0.039,0.292,0.025,0.335-0.041c0.144-0.22,0.095-0.41-0.147-0.569
		c-0.596-0.39-1.277-0.554-2.044-0.49l0.496,0.183C85.872,41.39,86.127,41.526,86.327,41.657z"/>
	<path fill="#0064A6" d="M81.05,66.924c-0.217,0.331-0.536,0.358-0.955,0.083l-4.189-2.846c-0.066-0.043-0.131-0.198-0.196-0.46
		c-0.063-0.262-0.059-0.449,0.014-0.559c0.071-0.11,0.127-0.16,0.168-0.148c0.041,0.011,0.096,0.008,0.17-0.007
		c0.183-0.037,0.556-0.486,1.121-1.346l2.593-4.31c0.912-1.388,1.867-2.734,2.864-4.036c0.997-1.302,1.996-2.619,2.996-3.95
		c0.138,0.028,0.248-0.042,0.328-0.21c0.078-0.167,0.085-0.345,0.019-0.531c-0.067-0.186-0.047-0.362,0.062-0.527
		c0.109-0.166,0.251-0.19,0.428-0.075c0.176,0.116,0.286,0.283,0.333,0.504l2.447,1.606c0.197-0.06,0.374-0.039,0.528,0.062
		c0.154,0.102,0.229,0.229,0.222,0.382c-0.006,0.155-0.041,0.303-0.106,0.451c-0.144,0.411-0.15,0.66-0.018,0.747l1.439,0.188
		c0.974,0.103,1.746,0.286,2.313,0.548c0.569,0.264,1.106,0.562,1.614,0.895c1.006,1.734,1.844,3.246,2.513,4.537
		c1.869-0.16,3.643,0.263,5.318,1.268c0.499,0.296,1.173,0.723,2.024,1.281c0.847,0.557,1.54,1.171,2.081,1.839
		c0.536,0.669,0.884,1.331,1.038,1.984c0.155,0.654,0.193,1.316,0.114,1.992c-0.081,0.672-0.124,1.401-0.133,2.185
		c-0.682,2.14-1.595,4.183-2.745,6.126c-1.148,1.943-2.34,3.852-3.568,5.725c-0.349,0.529-0.645,0.713-0.887,0.555l-4.123-2.944
		l-0.103-0.493c0.661-0.765,1.217-1.495,1.674-2.19c0.456-0.693,0.959-1.522,1.514-2.484c0.552-0.963,1.07-1.883,1.553-2.766
		c1.12-2.041,1.679-3.157,1.679-3.348c-0.002-0.19-0.022-0.41-0.065-0.658c-0.043-0.249-0.122-0.523-0.243-0.822
		c-0.313-0.773-0.713-1.318-1.195-1.637c-0.839-0.55-1.819-0.643-2.943-0.276c-1.758,1.431-3.25,3.079-4.474,4.942
		c-1.224,1.864-2.241,3.727-3.056,5.59c-0.144,0.22-0.259,0.334-0.343,0.344c-0.084,0.006-0.271-0.084-0.557-0.271
		c-0.287-0.188-0.596-0.462-0.927-0.822c-0.333-0.359-0.718-0.685-1.16-0.975l-1.388-0.769c-0.418-0.276-0.57-0.502-0.455-0.678
		l0.195-0.298c0.008-0.059,0.04-0.132,0.098-0.22l0.217-0.331l1.858-2.471l0.432-0.947c0.246-0.375,0.552-0.742,0.915-1.104
		c0.364-0.361,0.683-0.751,0.958-1.17c0.137-0.352,0.341-0.832,0.615-1.441c0.273-0.608,0.446-1.017,0.52-1.221
		c-0.165-0.423-0.256-1.005-0.277-1.744s-0.048-1.294-0.087-1.667c-0.041-0.374-0.138-0.753-0.294-1.139
		c-0.926-0.607-1.561-0.915-1.906-0.92c-0.637-0.04-0.999-0.088-1.087-0.145c-0.087-0.058-0.124-0.098-0.11-0.12
		c-0.227,0.104-0.473,0.25-0.737,0.439c-0.266,0.188-0.493,0.338-0.677,0.454c-0.187,0.115-0.334,0.23-0.443,0.349l-1.303,1.984
		c-0.55,0.838-1.107,1.875-1.667,3.117C82.465,64.429,81.614,66.063,81.05,66.924z M77.653,63.084
		c-0.188,0.287-0.215,0.474-0.083,0.561c0.132,0.086,0.367,0.161,0.703,0.225c0.338,0.064,0.708,0.101,1.11,0.114
		c1.001,0.059,1.583-0.034,1.742-0.276c-0.19,0.001-0.626-0.127-1.308-0.385C78.606,62.905,77.884,62.827,77.653,63.084z
		 M77.76,64.148l0.132,0.087l0.428,0.14c0.448,0.137,0.947,0.29,1.495,0.461l0.848,0.225l0.282-0.43l-0.464-0.304L77.76,64.148z
		 M82.146,62.152l-0.145-0.141c-0.419-0.274-1.462-0.534-3.133-0.78l-0.651,0.993c0.035-0.008,0.095,0,0.175,0.021
		c0.082,0.022,0.282,0.027,0.604,0.018c0.321-0.01,0.776-0.018,1.367-0.026C80.952,62.229,81.546,62.2,82.146,62.152z
		 M82.627,60.338c-0.221-0.145-0.969-0.399-2.244-0.763c-0.199-0.13-0.248-0.272-0.147-0.427c0.174-0.265,0.73-0.342,1.667-0.23
		s1.577,0.121,1.92,0.03c-0.638-0.419-1.269-0.698-1.887-0.837c-0.62-0.138-1.003-0.192-1.149-0.161l-0.24,0.078l-0.39,0.596
		l-0.445,0.607c-0.421,0.641-0.542,1.064-0.365,1.275c0.262-0.111,0.531-0.147,0.807-0.109c0.273,0.037,0.568,0.082,0.883,0.13
		c0.799,0.178,1.387,0.17,1.767-0.023L82.627,60.338z M79.297,62.743l0.132,0.087c0.037-0.008,0.136,0.009,0.296,0.052
		c0.161,0.044,0.322,0.086,0.484,0.128c0.474,0.092,0.747,0.16,0.812,0.203l0.132,0.087c0.132,0.087,0.196,0.208,0.19,0.362
		l0.729-0.751l-0.057-0.274c-0.316-0.05-0.735-0.047-1.257,0.003c-0.524,0.051-0.975,0.03-1.355-0.061L79.297,62.743z
		 M79.446,65.255c0.146,0.255,0.31,0.44,0.486,0.556c0.066,0.043,0.189,0.046,0.373,0.008l-0.011-0.198L79.446,65.255z
		 M82.632,61.051c-1.398-0.129-2.134-0.138-2.206-0.027l1.352,0.462l-0.087,0.132c0.265,0.079,0.463,0.076,0.599-0.009
		c0.134-0.085,0.303-0.234,0.506-0.448L82.632,61.051z M82.743,54.971c-0.305,0.367-0.592,0.756-0.859,1.165
		c-0.268,0.408-0.591,0.85-0.966,1.33c0.066,0.043,0.751,0.02,2.057-0.069c1.305-0.089,1.965-0.145,1.979-0.167
		c-0.44-0.291-0.892-0.491-1.354-0.605c-0.461-0.115-0.917-0.286-1.365-0.517c0.203-0.309,0.703-0.469,1.5-0.483
		c0.571-0.003,1.196,0.075,1.879,0.239c-0.009-0.036-0.057-0.083-0.145-0.142l-0.23-0.152c-0.663-0.435-1.205-0.664-1.63-0.69
		C83.184,54.852,82.895,54.883,82.743,54.971z M83.063,60.105l0.438-0.376c0.043-0.066,0.069-0.128,0.076-0.187
		c-0.155-0.101-0.407-0.164-0.753-0.188c-0.349-0.023-0.598,0.01-0.752,0.099L83.063,60.105z M82.49,57.881l1.551,0.735l0.542-0.827
		C84.423,57.748,83.724,57.777,82.49,57.881z M87.928,52.696c0.043-0.161-0.002-0.286-0.135-0.373
		c-0.352-0.232-0.865-0.411-1.54-0.537c-0.673-0.128-1.044-0.165-1.109-0.114c-0.153,0.185-0.332,0.421-0.538,0.712
		c-0.208,0.291-0.416,0.573-0.626,0.844c-0.21,0.272-0.436,0.566-0.673,0.883l2.504,0.224c0.028,0.05,0.11,0.12,0.242,0.207
		c0.132,0.086,0.332,0.13,0.6,0.132c0.267,0.002,0.495-0.045,0.685-0.142c-0.044-0.028-0.074-0.08-0.089-0.153l-2.826-0.957
		c-0.133-0.087-0.159-0.19-0.079-0.313c0.08-0.12,0.275-0.205,0.59-0.251c0.316-0.046,0.665-0.075,1.053-0.089
		c0.388-0.015,0.765-0.027,1.136-0.037C87.49,52.725,87.761,52.712,87.928,52.696z M85.54,56.335
		c-0.353-0.231-0.82-0.24-1.404-0.023l0.991,0.651L85.54,56.335z M84.42,54.652c0.308,0.203,0.644,0.376,1.009,0.52
		c0.361,0.142,0.746,0.317,1.15,0.519c0.297-0.214,0.513-0.42,0.643-0.619l-0.299-0.196L84.42,54.652z M86.843,49.522
		c-0.133-0.087-0.359,0.112-0.677,0.597l-0.651,0.992c0.483,0.034,0.917,0.01,1.3-0.069c0.384-0.079,0.707-0.127,0.971-0.143
		c-0.26,0.396-0.462,0.595-0.605,0.596c-0.142,0.001-0.376,0.007-0.697,0.017c0.265,0.174,0.551,0.242,0.858,0.207
		c0.307-0.036,0.603,0.042,0.889,0.229c-0.015-0.073,0.021-0.175,0.108-0.308l0.455-0.838L86.843,49.522z M86.002,53.467
		c0.828,0.323,1.325,0.507,1.486,0.549c0.067,0.044,0.254-0.053,0.569-0.29c0.312-0.236,0.556-0.391,0.732-0.465
		C87.792,53.144,86.865,53.213,86.002,53.467z M90.266,66.868c-0.732,0.875-1.454,1.855-2.163,2.935l-0.325,0.497
		c-0.116,0.176-0.162,0.366-0.139,0.571c0.067,0.043,0.399,0.065,1,0.064c0.599,0,1.102,0.006,1.504,0.017
		c0.4,0.013,0.774,0.021,1.119,0.025c-0.463-0.303-0.923-0.479-1.38-0.528c-0.459-0.047-0.906-0.216-1.348-0.506
		c0.174-0.265,0.409-0.418,0.705-0.461c0.295-0.042,0.608-0.05,0.938-0.023c1.061,0.066,1.77,0.043,2.128-0.07l-0.078-0.24
		c-0.345-0.004-0.679-0.06-1.005-0.164c-0.327-0.104-0.669-0.146-1.028-0.13c0.16-0.243,0.354-0.359,0.584-0.351
		c0.23,0.01,0.467,0.047,0.709,0.112c0.243,0.064,0.471,0.112,0.687,0.144c0.215,0.031,0.354-0.012,0.416-0.129
		c0.061-0.117,0.1-0.186,0.114-0.208l0.153-0.231l-2.272,0.07c-0.081,0.073-0.209,0.162-0.387,0.264
		c-0.18,0.104-0.29,0.142-0.334,0.113l-0.167-0.251c0.305-0.463,0.854-0.7,1.653-0.713c0.344,0.006,0.675,0.017,0.992,0.037
		c0.319,0.02,0.62-0.02,0.906-0.116l-0.232-0.152c-0.199-0.13-0.55-0.267-1.056-0.409C90.959,66.725,90.396,66.671,90.266,66.868z
		 M91.994,54.939c-0.25-0.004-0.558-0.065-0.923-0.18c-0.367-0.115-0.751-0.225-1.154-0.332c-0.953-0.278-1.547-0.336-1.779-0.174
		c0.44,0.289,0.913,0.497,1.414,0.621c0.502,0.125,0.92,0.296,1.25,0.513c0.331,0.217,0.658,0.368,0.98,0.454
		c0.322,0.086,0.655,0.13,0.999,0.136c0.826,0.039,1.465-0.046,1.918-0.255l-0.384-0.063c-0.278-0.056-0.582-0.122-0.913-0.197
		c-0.33-0.075-0.634-0.139-0.912-0.196c-0.278-0.056-0.429-0.091-0.45-0.106L91.994,54.939z M88.607,71.271l1.313,1.1
		c0.087,0.057,0.218,0.111,0.39,0.161c0.172,0.049,0.266,0.065,0.28,0.042l0.651-0.993C90.268,71.383,89.391,71.279,88.607,71.271z
		 M89.667,53.222c0.198,0.13,0.832,0.184,1.904,0.162c1.071-0.022,1.632-0.047,1.684-0.078c-0.552-0.362-1.132-0.546-1.743-0.552
		c-0.612-0.007-1.057,0-1.339,0.02c-0.281,0.021-0.484,0.005-0.61-0.045l-0.087,0.132l0.386,0.063L89.667,53.222z M94.178,53.487
		c-0.184,0.037-0.332,0.098-0.448,0.179c-0.116,0.081-0.247,0.122-0.389,0.123c-0.141,0.001-0.384,0.008-0.724,0.022
		c-0.339,0.014-0.699,0.031-1.075,0.052c-0.376,0.021-0.731,0.032-1.063,0.036c-0.333,0.001-0.565,0.006-0.697,0.015L89.915,54
		l5.255,1.368c-0.099-0.475-0.267-0.893-0.502-1.253C94.429,53.754,94.267,53.543,94.178,53.487z M91.728,70.052
		c-0.096,0.001-0.23-0.01-0.407-0.03c-0.177-0.02-0.351-0.042-0.526-0.063c-0.403-0.011-0.66-0.005-0.768,0.018
		c0.287,0.188,0.638,0.324,1.056,0.409c0.417,0.085,0.634,0.117,0.648,0.094C91.859,70.282,91.859,70.139,91.728,70.052z
		 M94.627,65.851c-1.289-0.151-2.286-0.413-2.991-0.781l-0.673,1.026l3.326-0.088L94.627,65.851z M94.997,63.632
		c-0.577,0.159-1.402,0.09-2.472-0.203l-0.519,1.08c0.482-0.158,1.05-0.218,1.705-0.182c0.656,0.036,1.216,0.034,1.685-0.006
		c0.071-0.015,0.174-0.075,0.304-0.177c0.131-0.104,0.242-0.126,0.33-0.068l0.077,0.098c0.232-0.352,0.403-0.541,0.512-0.563
		c0.234-0.067,0.541-0.236,0.924-0.505c0.381-0.271,0.819-0.481,1.313-0.63c0.492-0.15,0.988-0.234,1.49-0.252
		c0.5-0.018,1.033,0,1.597,0.055c0.563,0.055,1.072,0.097,1.526,0.126c0.453,0.031,0.814,0.078,1.086,0.146
		c0.271,0.067,0.539,0.046,0.802-0.067l-0.869-0.333c-0.221-0.145-0.36-0.315-0.42-0.513c0.19,0,0.705,0.148,1.55,0.45
		c0.086-0.133-0.719-0.757-2.417-1.87c-0.527-0.347-1.226-0.536-2.089-0.567c-1.573-0.055-2.523-0.049-2.852,0.021l0.563,0.368
		l-0.087,0.132c0.131-0.104,0.675-0.045,1.635,0.175c1.779,0.411,2.924,0.784,3.431,1.117l0.069,0.471l-1.924-0.459
		c-1.75-0.171-2.994-0.246-3.731-0.227c-0.116,0.176-0.158,0.299-0.125,0.368c0.033,0.069,0.022,0.148-0.036,0.236
		c-0.161,0.243-0.942,0.233-2.348-0.026c-0.301-0.072-0.473-0.121-0.518-0.15c-0.161-0.043-0.263-0.03-0.306,0.036
		c0.375,0.246,0.773,0.443,1.194,0.596c0.421,0.151,0.82,0.348,1.194,0.596c-0.203,0.308-0.653,0.438-1.348,0.392
		c-0.308-0.012-0.597-0.051-0.868-0.12c-0.271-0.067-0.494-0.112-0.669-0.133l-0.078-0.1c-0.022-0.014-0.118,0.001-0.29,0.046
		c-0.172,0.045-0.33,0.084-0.475,0.114C94.026,63.138,94.511,63.313,94.997,63.632z M93.919,66.569l-1.57-0.131l-0.087,0.132
		c0.087,0.058,0.304,0.137,0.648,0.236c0.343,0.101,0.535,0.146,0.573,0.139L93.919,66.569z M93.741,56.891
		c-0.022-0.015-0.048-0.095-0.078-0.24c-0.13,0.198-0.337,0.259-0.62,0.186c-0.281-0.076-0.475-0.13-0.577-0.167
		c-0.044,0.066-0.01,0.207,0.101,0.423c0.11,0.215,0.184,0.413,0.224,0.596c0.726,0.192,1.287,0.237,1.685,0.136
		c0.399-0.101,0.641-0.218,0.728-0.351c-0.211-0.013-0.374-0.056-0.484-0.127c-0.331-0.218-0.445-0.403-0.343-0.559
		c0.533,0.005,1.198,0.267,1.991,0.788c-0.008-0.131-0.087-0.349-0.234-0.651c-0.148-0.302-0.25-0.472-0.305-0.508
		c-0.055-0.035-0.16-0.057-0.313-0.062c-0.154-0.007-0.327-0.009-0.517-0.008c-0.52-0.025-0.871-0.066-1.053-0.124
		c0.146,0.255,0.207,0.405,0.179,0.449C93.979,56.891,93.852,56.963,93.741,56.891z M92.998,58.675
		c0.083,0.401,0.12,0.631,0.115,0.69c0.456,0.173,1.036,0.262,1.741,0.268c0.706,0.006,1.18-0.006,1.422-0.037
		c0.043-0.066,0.061-0.156,0.058-0.27c-0.004-0.115-0.029-0.186-0.073-0.214c-0.587-0.069-1.129-0.118-1.63-0.148
		C94.127,58.935,93.583,58.839,92.998,58.675z M93.045,62.351c0.066,0.042,0.373,0.103,0.923,0.179
		c1.017,0.133,1.577,0.169,1.68,0.109c0.058-0.088,0.053-0.154-0.012-0.197c-0.155-0.102-0.43-0.188-0.826-0.259
		c-0.827-0.133-1.377-0.257-1.649-0.373L93.045,62.351z M96.2,61.582l0.076-0.187c0.361-0.552,1.377-0.705,3.046-0.46
		c0.373,0.055,0.68,0.068,0.921,0.038l-0.211-0.328c-0.114,0.177-0.316,0.17-0.602-0.017c-1.313-0.451-2.581-0.637-3.801-0.555
		c-0.322,0.01-0.683,0.009-1.085-0.002l-0.109,0.166c0.762,0.089,1.417,0.315,1.969,0.677l-0.471,0.069l-2.442-0.608
		c-0.183,0.037-0.288,0.079-0.316,0.123c-0.029,0.045-0.025,0.157,0.013,0.34c0.191,0.094,0.557,0.161,1.099,0.201
		c0.959,0.127,1.561,0.267,1.803,0.427L96.2,61.582z M95.345,65.044c-0.69-0.295-1.371-0.315-2.041-0.062
		c0.551,0.362,1.081,0.49,1.592,0.384C95.081,65.329,95.229,65.221,95.345,65.044z M94.036,58.315l0.112,0.12
		c0.198,0.13,0.558,0.231,1.077,0.305c0.519,0.073,0.902,0.126,1.148,0.162c0.244,0.035,0.371,0.023,0.378-0.036l-0.118-1.119
		c-0.094,0.096-0.298,0.191-0.612,0.285c-0.315,0.093-0.529,0.132-0.647,0.119l0.087-0.133L94.036,58.315z M101.415,77.93
		c-1.058-0.694-2.029-0.97-2.914-0.826c-0.328,0.068-0.579,0.234-0.751,0.5c0.285,0.188,0.766,0.346,1.44,0.473
		C100.456,78.309,101.199,78.26,101.415,77.93z M97.785,59.168c1.287-0.134,2.519-0.065,3.699,0.205l-2.352-0.741l-1.149,0.238
		L97.785,59.168z M98.871,76.399c0.62-0.127,1.198-0.167,1.732-0.116s1.105,0.023,1.71-0.083c-0.177-0.117-0.536-0.18-1.08-0.191
		c-0.546-0.011-1.172-0.124-1.884-0.339L98.871,76.399z M100.77,79.635c0.154,0.102,0.405-0.112,0.753-0.642
		c0.131-0.199,0.14-0.334,0.029-0.407c-0.234,0.068-0.529,0.097-0.884,0.084c-0.354-0.012-0.625-0.018-0.817-0.017
		C99.979,78.99,100.284,79.316,100.77,79.635z M100.862,74.016c-0.091-0.058-0.09-0.153-0.002-0.285
		c0.086-0.133,0.264-0.212,0.535-0.239c0.269-0.028,0.581-0.044,0.933-0.051c0.351-0.005,0.697-0.006,1.042-0.001
		c0.344,0.005,0.62-0.033,0.834-0.115c0.034-0.102-0.023-0.205-0.179-0.306l-2.637-0.454l-1.391,2.116
		c0.313-0.141,0.716-0.176,1.207-0.106c0.908,0.154,1.535,0.188,1.878,0.097l-0.111-0.12L100.862,74.016z M102.845,76.691
		c-0.131-0.087-0.511-0.066-1.131,0.063c-0.62,0.128-0.955,0.207-1.006,0.237c0.661,0.435,1.081,0.633,1.267,0.595
		C102.192,77.54,102.483,77.242,102.845,76.691z M100.99,75.332c0.116,0.014,0.29,0.063,0.519,0.15
		c0.227,0.086,0.481,0.158,0.759,0.214c0.666,0.185,1.088,0.146,1.261-0.12l-0.463-0.304l-1.965-0.107L100.99,75.332z
		 M101.953,71.703c1.241-0.257,2.367-0.213,3.37,0.13c-0.06-0.102-0.07-0.181-0.034-0.236c0.036-0.054,0.071-0.086,0.11-0.094
		c-0.097,0-0.3-0.046-0.616-0.144c-0.314-0.096-0.646-0.195-0.99-0.295c-0.895-0.271-1.362-0.374-1.407-0.309L101.953,71.703z
		 M106.487,64.221l-3.55-0.865l-0.196,0.298l0.562,0.368l2.856,0.408L106.487,64.221z M104.492,73.75
		c-0.101,0.155-0.409,0.236-0.921,0.249c-0.511,0.011-0.775,0.027-0.789,0.049c0.309,0.203,0.627,0.318,0.956,0.344
		c0.331,0.027,0.524-0.003,0.582-0.092C104.479,74.151,104.538,73.968,104.492,73.75z M104.354,72.806l0.321,0.448
		c0.044,0.028,0.115,0.044,0.208,0.042c0.097,0,0.164-0.034,0.207-0.099c0.146-0.221,0.256-0.509,0.335-0.87
		c-1.646,0.055-2.48,0.027-2.503-0.081c-0.044,0.066-0.033,0.121,0.033,0.165L104.354,72.806z M105.473,69.518
		c-0.311-0.203-0.961-0.363-1.957-0.481l-0.565,0.86l0.134,0.086l1.469-0.076c0.154,0.101,0.306,0.122,0.457,0.063
		c0.148-0.059,0.297-0.127,0.442-0.206c0.146-0.077,0.281-0.153,0.41-0.229c0.127-0.074,0.245-0.075,0.355-0.002l0.144,0.141
		c0.253-0.148,0.44-0.31,0.557-0.486s0.215-0.427,0.301-0.749c0.087-0.322,0.052-0.534-0.102-0.635
		c0.203-0.309,0.326-0.605,0.371-0.893c0.045-0.285-0.095-0.565-0.418-0.842l0.273-0.056c-0.103-0.131-0.258-0.422-0.466-0.875
		l0.274-0.055c-0.097-0.094-0.085-0.229,0.03-0.406c-0.234,0.068-0.597,0.066-1.087-0.003l-1.054-0.124
		c-0.214-0.014-0.371,0.01-0.472,0.069l1.84,1.018c0.244,0.16,0.334,0.283,0.277,0.372c-0.248,0.375-0.638,0.513-1.172,0.414
		c-0.222-0.049-0.43-0.091-0.627-0.127c-0.198-0.035-0.358,0.017-0.482,0.157l0.563,0.369l-0.173,0.265
		c0.089,0.058,0.184,0.066,0.291,0.025c0.105-0.041,0.181-0.095,0.224-0.161c0.008,0.036,0.045,0.076,0.112,0.12
		c0.065,0.043,0.175,0.115,0.33,0.217c0.154,0.101,0.267,0.136,0.336,0.102c0.068-0.032,0.142-0.024,0.22,0.026
		c0.077,0.05,0.145,0.222,0.206,0.514c-0.275,0.419-0.954,0.588-2.037,0.508c-0.25-0.006-0.439-0.004-0.571,0.003l1.738,0.81
		L105.473,69.518z M106.601,63.111c-0.271-0.115-0.745-0.188-1.417-0.221c-1.267-0.043-1.955,0.024-2.071,0.202
		c0.066,0.043,0.424,0.121,1.076,0.233c1.259,0.197,1.99,0.36,2.188,0.49c0.197,0.13,0.365,0.163,0.505,0.095L106.601,63.111z
		 M105.692,71.271l0.239-0.364c0.16-0.242,0.172-0.408,0.04-0.494c-0.154-0.102-0.542-0.121-1.169-0.058s-1.029,0.113-1.213,0.151
		c0.515,0.275,0.976,0.474,1.383,0.6C105.38,71.231,105.619,71.287,105.692,71.271z M103.795,65.15
		c0.184,0.249,0.388,0.444,0.608,0.589c0.287,0.187,0.871,0.162,1.756-0.078C105.673,65.342,104.885,65.173,103.795,65.15z
		 M105.767,67.771c-0.331-0.217-0.667-0.367-1.007-0.448c-0.343-0.083-0.634,0.065-0.88,0.439c0.285,0.187,0.639,0.287,1.061,0.294
		c0.421,0.008,0.651-0.021,0.695-0.087L105.767,67.771z"/>
	<path fill="#0064A6" d="M113.272,88.271l-3.979-2.803c-0.133-0.182-0.156-0.338-0.069-0.471l0.5-0.476
		c0.059-0.088,0.225-0.304,0.496-0.645c0.271-0.342,0.588-0.75,0.945-1.225c0.358-0.474,0.745-0.969,1.163-1.484
		c0.418-0.516,0.791-0.988,1.121-1.418c0.329-0.43,0.61-0.774,0.843-1.032l0.296-0.375l0.854-1.664
		c0.375-0.573,0.693-1.034,0.955-1.384c0.261-0.35,0.481-0.646,0.658-0.893s0.339-0.457,0.483-0.629
		c0.145-0.172,0.312-0.403,0.5-0.689c0.188-0.286,0.571-1.061,1.146-2.323c0.14,0.027,0.238-0.001,0.298-0.091
		c0.058-0.088,0.056-0.207-0.005-0.356c-0.059-0.148-0.077-0.264-0.057-0.345c0.182-0.039,0.339-0.086,0.473-0.141
		c0.129-0.055,0.262-0.088,0.393-0.096c0.344,0.004,0.715,0.138,1.11,0.398l2.281,1.498c0.265,0.174,0.213,0.582-0.16,1.22
		c-0.372,0.639-0.688,1.166-0.942,1.581c-0.257,0.416-0.454,0.751-0.591,1.008c-0.138,0.257-0.367,0.596-0.688,1.014
		c-0.323,0.419-0.685,0.908-1.082,1.468c-0.972,1.287-1.776,2.415-2.414,3.386c-0.332,0.507-0.637,1.018-0.911,1.531
		c-0.273,0.515-0.556,1.04-0.844,1.576c-0.866,1.607-1.546,2.788-2.039,3.538C113.762,88.322,113.517,88.431,113.272,88.271z
		 M114.346,84.906c-0.275,0.134-0.678,0.169-1.206,0.107c-1.003-0.155-1.699-0.152-2.085,0.003c0.662,0.435,1.323,0.711,1.986,0.832
		c0.663,0.12,1.029,0.125,1.103,0.015c0.016-0.022,0.052-0.163,0.112-0.423C114.318,85.178,114.349,85.001,114.346,84.906z
		 M111.174,84.479c0.399-0.179,1.099-0.208,2.094-0.092l-0.046-0.22c-0.155-0.006-0.316-0.035-0.488-0.084
		c-0.173-0.05-0.351-0.104-0.533-0.161c-0.417-0.085-0.706-0.006-0.865,0.236l-0.109,0.166
		C111.183,84.39,111.165,84.442,111.174,84.479z M112.139,86.107c0.082,0.211,0.226,0.386,0.438,0.524
		c0.209,0.137,0.431,0.243,0.665,0.318c0.234,0.077,0.461-0.053,0.679-0.383C113.458,86.261,112.864,86.109,112.139,86.107z
		 M115.352,82.725l-0.23-0.152c-0.023-0.015-0.034-0.03-0.038-0.048c-0.005-0.019-0.105-0.069-0.304-0.152
		c-0.198-0.083-0.409-0.167-0.637-0.252c-0.626-0.251-0.965-0.333-1.023-0.245l-0.651,0.993c0.416-0.011,0.78-0.023,1.092-0.041
		c0.311-0.017,0.633-0.025,0.966-0.028C114.856,82.796,115.133,82.771,115.352,82.725z M115.235,83.264l-2.567,0.161l-0.109,0.165
		c0.287,0.188,0.642,0.333,1.063,0.437s0.786,0.208,1.095,0.316l0.488-0.674C115.336,83.472,115.346,83.336,115.235,83.264z
		 M117.087,81.166c-0.221-0.145-0.667-0.185-1.341-0.122c-1.265,0.148-1.947,0.299-2.048,0.454
		C115.173,82.467,116.305,82.357,117.087,81.166z M116.412,80.535c-1.254-0.254-1.976-0.381-2.165-0.38l-0.183,0.495
		C114.942,80.848,115.725,80.81,116.412,80.535z M116.44,78.328l-0.343-0.415c-0.219,0.045-0.566,0.432-1.044,1.16l0.196,0.13
		c0.222,0.145,0.722,0.188,1.499,0.132c0.778-0.057,1.222-0.097,1.334-0.119c-0.039-0.183-0.123-0.318-0.254-0.405
		c-0.134-0.087-0.347-0.156-0.645-0.209C116.887,78.551,116.64,78.458,116.44,78.328z M115.507,79.751l-0.22,0.046
		c0.008,0.037,0.024,0.062,0.045,0.076l0.067,0.044c0.463,0.303,0.956,0.479,1.479,0.522c0.523,0.044,0.93-0.155,1.218-0.596
		L115.507,79.751z M119.21,77.069c-0.155-0.102-0.899-0.385-2.234-0.852c-0.275,0.419-0.454,0.704-0.537,0.854
		c-0.083,0.151-0.103,0.288-0.058,0.413c0.336-0.126,0.739-0.176,1.212-0.151c0.471,0.025,0.833,0.042,1.08,0.046
		c0.25,0.005,0.487-0.043,0.713-0.147L119.21,77.069z M118.617,78.763c0.02-0.366-0.086-0.624-0.318-0.777
		c-0.233-0.152-0.502-0.187-0.807-0.104c-0.308,0.081-0.476,0.146-0.504,0.189c0.199,0.13,0.524,0.282,0.98,0.455L118.617,78.763z
		 M120.506,75.886c-1.584-0.281-2.673-0.303-3.271-0.065l0.165,0.108c0.146-0.03,0.518,0.078,1.111,0.328
		c0.595,0.248,0.979,0.429,1.157,0.546L120.506,75.886z M120.218,75.316l-0.166-0.109c-0.021-0.014-0.066-0.052-0.138-0.115
		c-0.07-0.062-0.219-0.136-0.445-0.222c-0.228-0.086-0.446-0.136-0.66-0.149c-0.564-0.055-0.946,0.073-1.149,0.382
		c0.308,0.203,0.728,0.32,1.26,0.353C119.446,75.491,119.881,75.445,120.218,75.316z M119.026,72.878
		c-0.334,0.507-0.429,0.807-0.286,0.901c0.144,0.094,0.358,0.14,0.644,0.139c0.286-0.002,0.586-0.025,0.899-0.073
		c0.313-0.046,0.611-0.103,0.893-0.171c0.282-0.067,0.495-0.116,0.642-0.147c-0.851-0.339-1.518-0.548-2.001-0.627
		C119.332,72.819,119.069,72.812,119.026,72.878z M121.636,74.167c-0.807-0.213-1.741-0.134-2.809,0.239l2.079,0.512
		c0.139,0.027,0.332-0.145,0.576-0.521L121.636,74.167z M122.514,72.47c-0.156-0.101-0.525-0.139-1.111-0.113
		c-0.834,0.021-1.413,0.065-1.744,0.132c0.376,0.152,0.76,0.285,1.156,0.405c0.396,0.118,0.691,0.208,0.885,0.273
		c0.196,0.065,0.3,0.086,0.314,0.063L122.514,72.47z M120.304,70.499c-0.202,0.309-0.321,0.61-0.355,0.902
		c-0.034,0.292-0.029,0.453,0.015,0.483c0.154,0.102,0.455,0.125,0.9,0.071c0.936-0.08,1.465-0.095,1.59-0.045L120.304,70.499z
		 M123.456,67.788l-1.08-0.661l-0.125-0.46l0.445-0.606l1.574-2.611c0.145-0.22,0.39-0.329,0.732-0.324l2.415,1.585
		c0.661,0.436,0.394,1.49-0.802,3.167c-0.232,0.353-0.351,0.606-0.357,0.76c-0.261,0.396-0.465,0.611-0.609,0.641l-0.476-0.36
		c-0.33-0.217-0.589-0.306-0.77-0.269C124.322,68.437,124.007,68.15,123.456,67.788z M125.916,66.564
		c-0.688-0.104-1.324-0.239-1.911-0.404l-0.391,0.596l1.721,1.129l0.674-1.025L125.916,66.564z M124.596,65.437
		c-0.127,0.026-0.208,0.068-0.245,0.122c-0.036,0.056-0.041,0.156-0.009,0.301c0.176,0.116,0.379-0.003,0.612-0.356
		C124.844,65.434,124.726,65.412,124.596,65.437z M125.949,64.787l-0.41-0.316c-0.396-0.26-0.659-0.292-0.79-0.093
		c-0.13,0.199-0.207,0.432-0.226,0.704L125.949,64.787z M125.188,65.943c0.732,0.229,1.24,0.295,1.524,0.197
		c0.073-0.11,0.108-0.269,0.103-0.478c-0.005-0.208-0.085-0.363-0.24-0.464c-0.154-0.102-0.381-0.068-0.679,0.097
		c-0.299,0.167-0.498,0.328-0.6,0.483L125.188,65.943z"/>
	<path fill="#0064A6" d="M121.09,93.451l-2.085-1.511c-0.551-0.362-1.126-0.662-1.728-0.899l-0.883-0.39
		c-0.33-0.217-0.489-0.417-0.48-0.599c0.01-0.184,0.195-0.55,0.557-1.102l0.717-1.091l1.946-2.604
		c0.071-0.11,0.093-0.24,0.063-0.385l6.536-9.955l1.331-1.447c1.387,0.912,2.463,1.555,3.227,1.93
		c-0.076,0.265-0.198,0.54-0.355,0.831c-0.159,0.29-0.26,0.516-0.302,0.677c2.217,0.037,3.941,0.458,5.177,1.271
		c2.978,1.954,4.274,4.4,3.894,7.336c-0.182,1.333-0.631,2.688-1.345,4.064c-0.715,1.376-1.43,2.659-2.145,3.844
		c-0.717,1.187-1.329,2.299-1.837,3.338c-0.509,1.038-1.09,2.055-1.741,3.047c-0.304,0.463-0.554,0.629-0.754,0.5l-2.657-1.935
		l-1.609-0.867c-0.198-0.131-0.267-0.241-0.21-0.329l3.844-5.854c0.025-0.329,0.164-0.696,0.413-1.101
		c0.251-0.404,0.472-0.873,0.667-1.41c0.588-1.569,0.893-3.089,0.912-4.56c0.009-0.783-0.661-1.616-2.003-2.499
		c-0.529-0.347-1.138-0.145-1.819,0.605c-0.164,0.207-0.303,0.393-0.411,0.558c-0.108,0.166-0.099,0.282,0.029,0.351
		c0.127,0.068,0.197,0.168,0.206,0.301c-0.044,0.066-0.143,0.119-0.297,0.161c-0.152,0.042-0.282,0.092-0.383,0.151l-0.918,2.047
		l-0.37,0.562l-2.017,3.362l-0.152,0.231C122.471,92.575,121.465,93.696,121.09,93.451z M121.094,90.991
		c-0.439-0.289-1.142-0.566-2.1-0.834c-0.961-0.268-1.495-0.39-1.604-0.368l3.439,2.259c0.043,0.029,0.163,0.014,0.359-0.046
		c0.199-0.059,0.334-0.144,0.405-0.254c0.13-0.198,0.03-0.407-0.3-0.623L121.094,90.991z M119.771,87.095
		c-0.198-0.13-0.264-0.245-0.2-0.345c0.064-0.1,0.194-0.164,0.388-0.194c0.195-0.031,0.328-0.054,0.4-0.068l2.878,0.231
		c0.006,0.037,0.037,0.073,0.094,0.109c0.055,0.036,0.151,0.021,0.289-0.046c-0.374-0.247-0.849-0.463-1.419-0.648
		c-1.019-0.322-1.617-0.542-1.794-0.658l-0.414,0.343l-1.998,3.042l3.087,0.56l0.131-0.199c-0.309-0.202-0.636-0.306-0.979-0.311
		c-0.346-0.005-0.632-0.084-0.863-0.235c-0.231-0.151-0.297-0.306-0.196-0.46c0.175-0.074,1.618,0.036,4.327,0.332l0.241-0.078
		l-2.893-0.858L119.771,87.095z M122.669,90.181c-0.088-0.058-0.215-0.094-0.38-0.108c-0.164-0.013-0.368-0.052-0.61-0.116
		c-0.242-0.063-0.494-0.136-0.759-0.214c-0.646-0.169-1.238-0.228-1.779-0.173l0.166,0.109c0.793,0.522,1.362,0.832,1.708,0.931
		C121.785,90.83,122.337,90.688,122.669,90.181z M124.098,79.569l-3.216,4.609c-0.188,0.287-0.194,0.487-0.019,0.604
		c0.266,0.174,0.864,0.307,1.797,0.399c0.935,0.091,1.438,0.131,1.512,0.116c-0.354-0.231-0.784-0.372-1.288-0.418
		c-0.506-0.048-0.847-0.13-1.022-0.246c-0.175-0.116-0.25-0.22-0.223-0.311c0.029-0.092,0.067-0.171,0.11-0.237l4.116,0.29
		l0.185-0.067c-0.543-0.23-1.101-0.4-1.677-0.509c-0.574-0.109-1.011-0.262-1.309-0.458c-0.299-0.195-0.419-0.337-0.359-0.425
		c0.245-0.375,0.723-0.456,1.437-0.242c0.263,0.079,0.53,0.152,0.802,0.22c0.271,0.068,0.51,0.043,0.713-0.075
		c-0.375-0.247-0.791-0.384-1.243-0.414c-0.453-0.03-0.829-0.143-1.128-0.339c-0.298-0.195-0.416-0.337-0.358-0.426
		c0.059-0.088,0.341-0.132,0.845-0.132s1.044,0.008,1.619,0.022c0.573,0.014,1.093,0.031,1.553,0.049l0.702,0.083
		c-0.33-0.217-0.747-0.349-1.253-0.398c-0.952-0.088-1.583-0.233-1.892-0.437c-0.221-0.144-0.279-0.294-0.179-0.449
		c0.052-0.029,0.223-0.027,0.517,0.007l3.459,0.283l0.186-0.067c-0.419-0.276-0.979-0.455-1.682-0.537l-1.615-0.208
		C124.799,79.823,124.436,79.728,124.098,79.569z M120.967,87.076c0.184,0.057,0.444,0.157,0.775,0.296
		c0.335,0.141,0.667,0.271,0.997,0.394c0.807,0.309,1.263,0.387,1.362,0.231c0.059-0.088,0.115-0.201,0.174-0.336
		c0.056-0.137-0.002-0.261-0.179-0.377l-2.877-0.231L120.967,87.076z M123.375,89.034c-0.646-0.076-1.205-0.065-1.678,0.033
		c0.242,0.16,0.551,0.277,0.93,0.35c0.377,0.075,0.573,0.1,0.587,0.078c0.015-0.022,0.04-0.098,0.081-0.231
		C123.333,89.133,123.36,89.056,123.375,89.034z M121.744,85.314l0.477,0.359c0.375,0.247,0.823,0.438,1.348,0.578
		c0.523,0.139,0.907,0.288,1.15,0.447l0.414-0.628L121.744,85.314z M125.662,85.046c-0.2-0.131-0.593-0.24-1.183-0.327
		c-0.588-0.087-0.925-0.141-1.003-0.162l1.31,0.67c0.109,0.072,0.263,0.094,0.456,0.063
		C125.434,85.259,125.575,85.178,125.662,85.046z M127.597,79.216l-0.145-0.141l-0.153-0.054c-1.717-0.463-2.61-0.641-2.684-0.53
		l-0.455,0.695C124.71,79.071,125.853,79.082,127.597,79.216z M126.629,83.646l-0.111-0.121c-0.177-0.116-0.506-0.214-0.989-0.295
		c-0.484-0.081-0.928-0.127-1.328-0.138c0.462,0.303,0.896,0.509,1.299,0.616c0.402,0.107,0.647,0.141,0.736,0.105L126.629,83.646z
		 M128.863,78.153c-0.397-0.26-1.426-0.399-3.087-0.417c-0.345-0.004-0.543,0.031-0.592,0.109c-0.052,0.078-0.067,0.122-0.044,0.137
		c0.19,0,0.362,0.048,0.519,0.151l3.096,0.186L128.863,78.153z M125.919,82.421c0.133,0.086,0.429,0.139,0.89,0.158l0.108-0.165
		l-0.517-0.15c-0.22-0.051-0.428-0.045-0.624,0.016c0.007,0.037,0.022,0.062,0.045,0.076L125.919,82.421z M128.566,76.729
		c-1.026-0.167-1.599-0.293-1.72-0.372c-0.121-0.079-0.15-0.168-0.084-0.269c0.064-0.1,0.74-0.168,2.029-0.207l-1.688-1.107
		l-0.969,1.258c-0.274,0.419-0.39,0.737-0.344,0.957c0.396,0.07,0.84,0.078,1.333,0.023c0.493-0.056,0.938-0.094,1.333-0.119
		L128.566,76.729z M128.021,97.67c0.03,0.051,0.171,0.16,0.426,0.326c0.254,0.167,0.601,0.348,1.04,0.542
		c0.439,0.195,0.859,0.422,1.256,0.683l0.031-0.264l-2.876-1.889L128.021,97.67z M129.782,95.135l2.854-0.021
		c0.021,0.014,0.106,0.007,0.252-0.023c-0.36-0.079-0.845-0.253-1.452-0.527c-1.071-0.483-1.623-0.703-1.651-0.658l-1.539,2.633
		c1.021-0.21,2.267-0.137,3.731,0.228l0.087-0.133c-0.087-0.058-0.244-0.13-0.473-0.216c-0.228-0.086-0.472-0.183-0.732-0.291
		c-0.259-0.108-0.5-0.211-0.72-0.309c-0.222-0.097-0.384-0.164-0.484-0.199l-0.132-0.087L129.782,95.135z M133.897,81.082
		l-0.198-0.132c-0.022-0.014-0.085-0.062-0.188-0.146c-0.104-0.084-0.395-0.204-0.874-0.362c-0.482-0.158-1-0.293-1.556-0.407
		c-1.313-0.261-2.216-0.302-2.714-0.124l0.2,0.131c0.155,0.102,0.97,0.29,2.447,0.564C132.49,80.882,133.45,81.04,133.897,81.082z
		 M130.148,78.43c-0.38,0.193-0.883,0.335-1.512,0.428l0.21,0.326c0.086-0.132,0.479-0.126,1.175,0.015
		c1.244,0.219,1.978,0.399,2.197,0.545c0.484,0.319,1.218,0.404,2.196,0.259c-0.618-0.406-1.272-0.656-1.968-0.749
		c-0.696-0.094-1.216-0.159-1.556-0.193c-0.34-0.035-0.521-0.059-0.543-0.072l-0.066-0.044c0.022,0.016,0.007-0.044-0.05-0.175
		C130.178,78.638,130.148,78.525,130.148,78.43z M128.807,96.909l2.447,1.322l0.564-0.86c-0.375-0.246-0.859-0.422-1.454-0.528
		C129.771,96.736,129.252,96.758,128.807,96.909z M135,79.438c-0.145-0.189-0.298-0.338-0.465-0.446
		c-0.165-0.109-0.504-0.252-1.018-0.432c-0.515-0.18-1.023-0.342-1.529-0.483c-0.864-0.22-1.62-0.369-2.265-0.445
		c0.765,0.375,1.523,0.685,2.278,0.928c1.319,0.393,2.398,0.816,3.235,1.272C135.223,79.758,135.143,79.627,135,79.438z
		 M132.199,90.805l0.237-0.648c0.058-0.088,0.161-0.099,0.307-0.034c0.146,0.064,0.303,0.136,0.473,0.215
		c0.558,0.208,0.982,0.235,1.272,0.079l-2.18-1.006c-0.191,0.726-0.563,1.508-1.113,2.345l-1.021,1.555l2.637,0.311l0.252-0.024
		l-1.442-0.758c-0.156-0.103-0.175-0.241-0.059-0.417c0.072-0.11,0.181-0.181,0.327-0.211l2.593,0.092L132.199,90.805z
		 M132.476,96.004c-0.662-0.435-1.193-0.563-1.593-0.384c0.206,0.072,0.418,0.18,0.638,0.324c0.221,0.144,0.468,0.275,0.739,0.39
		L132.476,96.004z M137.424,83.207c-0.223-0.43-0.543-0.783-0.961-1.058c-0.962-0.22-1.907-0.414-2.837-0.583
		s-1.574-0.341-1.934-0.514c-0.146,0.22-0.151,0.375-0.019,0.462c0.197,0.035,0.316,0.02,0.359-0.046
		C132.959,81.885,134.756,82.464,137.424,83.207z M131.692,93.738c-0.115,0.176-0.107,0.309,0.024,0.396
		c0.22,0.144,0.491,0.283,0.814,0.416c0.322,0.132,0.578,0.056,0.767-0.23c-0.243-0.16-0.512-0.257-0.804-0.291
		C132.202,93.995,131.937,93.898,131.692,93.738z M135.57,83.22l-0.132-0.087c-0.023-0.015-0.048-0.037-0.072-0.071
		c-0.024-0.033-0.179-0.101-0.456-0.205c-0.28-0.103-0.583-0.217-0.914-0.34c-0.813-0.25-1.345-0.378-1.595-0.383
		c-0.047,0.22,0.018,0.42,0.199,0.603c0.178,0.182,0.294,0.352,0.348,0.513L135.57,83.22z M132.706,88.157
		c-0.216,0.331-0.253,0.543-0.11,0.637c0.145,0.094,0.363,0.167,0.66,0.219c0.298,0.053,0.601,0.104,0.917,0.153l0.88,0.103
		c0.27,0.021,0.456,0.047,0.561,0.085l0.109-0.165c-0.883-0.579-1.592-0.919-2.126-1.017
		C133.06,88.073,132.766,88.069,132.706,88.157z M133.502,93.364c0.309,0.203,0.507,0.237,0.593,0.104
		c0.015-0.022,0.02-0.05,0.011-0.088l0.006-0.516c-0.204-0.072-0.465-0.109-0.778-0.11c-0.315-0.001-0.509,0.005-0.581,0.021
		L133.502,93.364z M133.814,86.47c0.059-0.087,0.346-0.119,0.866-0.094c0.957,0.03,1.626,0.168,2.001,0.414l0.217-0.045
		c-0.329-0.217-0.854-0.451-1.573-0.702c-1.335-0.466-2.067-0.599-2.198-0.402c-0.188,0.287-0.28,0.668-0.277,1.144
		c0.004,0.475,0.021,0.739,0.052,0.79l3.425,0.403c-0.089-0.058-0.235-0.122-0.439-0.194l-0.706-0.226
		c-0.66-0.244-1.051-0.406-1.172-0.485C133.889,86.992,133.823,86.792,133.814,86.47z M133.573,91.092l0.595,0.39
		c0.396,0.261,0.631,0.336,0.704,0.226l0.282-0.43c-0.631-0.098-1.325-0.287-2.089-0.567L133.573,91.092z M133.412,83.982
		c-0.203,0.309-0.205,0.527-0.007,0.659c0.176,0.115,0.805,0.228,1.885,0.338c1.08,0.109,1.638,0.161,1.675,0.152l-0.99-0.65
		c-0.113-0.073-0.273-0.115-0.484-0.128c-0.212-0.013-0.436-0.033-0.669-0.062C134.146,84.258,133.677,84.155,133.412,83.982z
		 M136.425,81.557c-0.02-0.548-0.453-0.896-1.303-1.043c-0.33-0.027-0.645,0.02-0.942,0.138
		C134.883,80.734,135.631,81.037,136.425,81.557z M136.233,90.282c-0.838-0.55-1.493-0.68-1.967-0.392l1.554,1.021L136.233,90.282z
		 M134.902,88.273c0.947,0.622,1.473,0.856,1.574,0.704c0.102-0.154,0.064-0.29-0.114-0.406
		C136.319,88.541,135.833,88.441,134.902,88.273z M137.103,87.446c-0.044-0.028-0.161-0.066-0.353-0.113
		c-0.189-0.046-0.394-0.095-0.615-0.144c-0.623-0.157-1.03-0.234-1.218-0.232c0.33,0.217,0.741,0.384,1.231,0.501
		c0.489,0.117,0.771,0.168,0.845,0.153L137.103,87.446z M137.619,86.081c-0.574-0.376-1.065-0.588-1.476-0.636
		c-0.409-0.048-0.69-0.027-0.845,0.061c0.06,0.103,0.211,0.233,0.454,0.392c0.241,0.16,0.569,0.296,0.985,0.411
		C137.151,86.421,137.446,86.345,137.619,86.081z M137.368,83.976c-0.275-0.182-0.588-0.245-0.94-0.191
		c-0.352,0.054-0.556,0.125-0.612,0.213c0.242,0.159,0.534,0.279,0.874,0.361c0.341,0.081,0.654,0.216,0.941,0.405
		C137.732,84.42,137.644,84.156,137.368,83.976z"/>
	<path fill="#0064A6" d="M135.531,102.744c-0.338,0.031-0.682-0.07-1.034-0.3c-0.861-0.566-1.24-0.973-1.14-1.221
		c0.251-0.624,0.453-1.052,0.605-1.284s0.34-0.479,0.561-0.745c0.22-0.263,0.458-0.519,0.713-0.762
		c0.596-0.619,0.981-0.872,1.158-0.754l3.274,2.15c0.067,0.043,0.064,0.12-0.009,0.23c-0.206,1.128-0.686,2.266-1.437,3.411
		l-0.207,0.244l-0.13,0.198l-0.438,0.092L135.531,102.744z M136.79,102.482c0.167-0.113,0.406-0.066,0.714,0.137
		c0.103-0.155,0.148-0.346,0.14-0.573c-0.629,0.284-1.459,0.084-2.496-0.597c0.218-0.33,0.513-0.491,0.886-0.482
		c0.372,0.009,0.673,0.009,0.899-0.001s0.448-0.084,0.668-0.224c-0.286,0.002-0.573-0.052-0.863-0.165
		c-0.289-0.11-0.573-0.195-0.851-0.251c-0.617-0.121-1.066,0.034-1.349,0.463c-0.282,0.432-0.355,0.689-0.224,0.776l2.487,1.255
		C136.876,102.712,136.872,102.6,136.79,102.482z M137,99.639c0.183-0.039,0.3-0.095,0.35-0.173c0.051-0.076-0.013-0.174-0.188-0.29
		s-0.441-0.18-0.797-0.192c-0.356-0.012-0.633,0.136-0.838,0.445l-0.086,0.132C135.796,99.792,136.315,99.819,137,99.639z
		 M138.44,101.481l0.076-0.187c-0.244-0.16-0.638-0.182-1.186-0.069c-0.548,0.115-0.865,0.189-0.953,0.229
		c0.351,0.23,0.745,0.353,1.176,0.368C137.986,101.839,138.281,101.725,138.44,101.481z M138.754,100.647
		c0.085-0.132,0.034-0.261-0.153-0.384c-0.188-0.124-0.461-0.208-0.823-0.257c-0.364-0.048-0.623,0.001-0.784,0.148l0.165,0.109
		c0.079,0.022,0.197,0.059,0.353,0.113c0.153,0.054,0.32,0.11,0.504,0.166C138.465,100.678,138.71,100.713,138.754,100.647z
		 M140.146,97.443l-1.41-0.879c-0.552-0.362-0.884-0.673-0.993-0.937c0.2-0.594,0.504-1.2,0.909-1.817l1.238-1.744
		c0.164-0.3,1.971-3.628,5.417-9.98l1.445-1.986l0.206-0.384c0.203-0.309,0.437-0.376,0.702-0.203l3.489,1.676l0.771,0.554
		c0.17,0.365-0.089,1.218-0.782,2.563c-0.211,0.367-0.409,0.695-0.597,0.981c-0.189,0.287-0.486,0.643-0.894,1.071
		c-0.407,0.427-0.853,0.89-1.34,1.392c-1.242,1.266-2.051,2.187-2.428,2.76l-2.364,4.033l-1.596,2.36l-0.64,1.046l-0.416,0.059
		C140.672,97.819,140.434,97.631,140.146,97.443z M138.926,95.553c-0.035,0.198,0.179,0.449,0.642,0.753l0.23,0.152
		c0.375,0.246,0.657,0.383,0.843,0.411c0.187,0.026,0.418-0.167,0.694-0.586l-0.266-0.174c0.072-0.11,0.146-0.148,0.218-0.117
		c0.074,0.033,0.163-0.027,0.264-0.182c0.102-0.154,0.073-0.282-0.079-0.384c-0.155-0.101-0.271-0.116-0.352-0.042
		c0.021,0.11,0.009,0.204-0.043,0.28c-0.05,0.076-0.183,0.1-0.398,0.068c-0.216-0.031-0.448-0.065-0.693-0.101
		c-0.246-0.034-0.472-0.073-0.679-0.115C139.096,95.475,138.971,95.487,138.926,95.553z M139.317,94.958
		c0.331,0.217,0.607,0.275,0.835,0.17c0.225-0.104,0.518-0.165,0.877-0.182l-0.165-0.109c-0.396-0.26-0.743-0.37-1.039-0.328
		c-0.297,0.043-0.481,0.12-0.553,0.229L139.317,94.958z M141.472,93.911c-0.731,0.152-1.29,0.163-1.678,0.034l-0.087,0.133
		c0.102,0.036,0.289,0.102,0.554,0.199c0.27,0.097,0.545,0.192,0.831,0.285c0.732,0.229,1.172,0.232,1.316,0.012
		c0.072-0.11,0.054-0.202-0.056-0.273c-0.455-0.172-0.785-0.246-0.989-0.224L141.472,93.911z M140.468,93.206
		c-0.202,0.309-0.259,0.492-0.17,0.55c0.349-0.149,0.695-0.173,1.041-0.073c0.344,0.101,0.703,0.083,1.073-0.052
		c-0.308-0.203-0.59-0.324-0.846-0.367c-0.257-0.042-0.551-0.172-0.881-0.389L140.468,93.206z M140.792,92.424
		c0.088,0.057,0.399,0.042,0.932-0.051c1.039-0.139,1.603-0.274,1.688-0.406c-0.331-0.217-0.633-0.36-0.901-0.427
		c-0.271-0.067-0.563-0.203-0.87-0.405L140.792,92.424z M141.136,92.838l0.131,0.087c0.396,0.26,0.842,0.362,1.336,0.307
		c0.49-0.055,0.861-0.269,1.108-0.644c-0.088-0.058-0.396-0.069-0.922-0.037c-0.965,0.029-1.521,0.106-1.667,0.23
		C141.109,92.806,141.112,92.823,141.136,92.838z M142.714,91.225l1.288,0.561l0.761-1.158c-0.2-0.13-0.418-0.148-0.653-0.05
		c-0.238,0.097-0.42,0.168-0.542,0.213c-0.124,0.045-0.252,0.023-0.386-0.063c0.145-0.221,0.313-0.331,0.502-0.333
		c0.381-0.002,0.615-0.069,0.702-0.203c-0.242-0.159-0.654-0.303-1.23-0.43c-0.58-0.128-0.879-0.18-0.893-0.159l-0.43,1.233
		c0.227-0.01,0.384-0.057,0.471-0.142c0.087-0.084,0.255-0.125,0.504-0.118c0.052,0.161,0.056,0.273,0.014,0.339l-0.252,0.167
		C142.555,91.105,142.603,91.152,142.714,91.225z M142.896,88.93c1.164,0.196,2.111,0.173,2.84-0.074
		c-0.153-0.006-0.359-0.063-0.621-0.172c-0.261-0.108-0.527-0.218-0.799-0.335c-0.645-0.265-1.046-0.292-1.202-0.078
		C142.96,88.483,142.887,88.703,142.896,88.93z M145.989,87.032l-1.662-0.57c-0.241,0.126-0.527,0.442-0.861,0.95
		c0.265,0.173,0.599,0.234,0.996,0.18c0.396-0.054,0.712-0.1,0.942-0.138c0.229-0.038,0.422-0.054,0.575-0.047L145.989,87.032z
		 M145.111,89.557c-0.2,0.042-0.373,0.016-0.516-0.08c-0.144-0.094-0.366-0.129-0.665-0.104c-0.301,0.023-0.445,0.054-0.439,0.09
		c0.618,0.404,1.095,0.593,1.432,0.56c0.337-0.031,0.535-0.097,0.602-0.196c0.065-0.1,0.11-0.18,0.136-0.242
		c0.024-0.063,0.046-0.104,0.061-0.126C145.515,89.483,145.312,89.516,145.111,89.557z M147.155,87.562
		c-0.433,0.127-0.915,0.18-1.453,0.159c-0.537-0.021-1.001,0.045-1.387,0.202c0.574,0.376,1.11,0.579,1.611,0.607
		c0.503,0.031,0.955-0.263,1.359-0.881L147.155,87.562z M144.54,85.846c-0.027,0.044,0.028,0.112,0.173,0.207
		c0.145,0.094,0.224,0.116,0.241,0.064c0.02-0.05,0.115-0.115,0.292-0.187c0.225-0.105,0.483-0.077,0.773,0.083
		c0.289,0.159,0.503,0.243,0.64,0.254c0.134,0.01,0.259-0.073,0.375-0.25c-0.027-0.051-0.12-0.128-0.275-0.229l-0.297-0.196
		c-0.42-0.274-0.791-0.431-1.113-0.47c-0.321-0.038-0.491-0.046-0.505-0.024L144.54,85.846z M145.038,84.515
		c0.439,0.29,0.741,0.314,0.899,0.07c0.029-0.043,0.006-0.129-0.068-0.257c-0.074-0.126-0.119-0.229-0.136-0.3
		c-0.043-0.029-0.136-0.043-0.277-0.043c-0.143,0-0.241,0.017-0.291,0.046C145.021,84.251,144.979,84.413,145.038,84.515z
		 M146.858,82.823c-0.3-0.071-0.507-0.119-0.616-0.143c-0.11-0.026-0.205,0.023-0.284,0.144s-0.052,0.273,0.079,0.456
		c-0.32-0.086-0.556-0.018-0.701,0.203c-0.014,0.022-0.028,0.06-0.047,0.11c-0.019,0.052-0.033,0.088-0.05,0.11
		c0.139,0.027,0.258,0.027,0.356-0.002c0.1-0.029,0.186-0.02,0.263,0.031c0.078,0.051,0.131,0.102,0.162,0.153
		c0.131-0.008,0.353,0.003,0.665,0.035c0.312,0.031,0.629,0.059,0.961,0.085c0.899,0.023,1.378-0.009,1.435-0.098
		c0.028-0.044-0.041-0.186-0.215-0.427c-0.174-0.24-0.306-0.39-0.393-0.446c-0.089-0.059-0.268-0.097-0.539-0.117
		c-0.269-0.02-0.441-0.023-0.515-0.008l0.086-0.132C147.375,82.878,147.159,82.895,146.858,82.823z M147.764,86.635
		c-0.067-0.044-0.208-0.071-0.419-0.085c-0.212-0.012-0.435-0.033-0.669-0.062c-0.461-0.017-0.819-0.001-1.075,0.052
		c0.286,0.188,0.594,0.32,0.925,0.394c0.329,0.074,0.648,0.213,0.957,0.416l0.414-0.629L147.764,86.635z M147.49,82.149l0.145,0.142
		c0.102,0.036,0.32,0.039,0.657,0.005c0.585-0.025,0.927-0.11,1.021-0.252c0.093-0.143,0.052-0.273-0.124-0.389
		c-0.617-0.406-1.152-0.662-1.603-0.769c-0.45-0.105-0.899,0.183-1.35,0.866c0.198,0.13,0.414,0.2,0.643,0.209
		C147.11,81.971,147.313,82.032,147.49,82.149z M146.793,84.722c0.046,0.124,0.037,0.307-0.026,0.549l1.322,0.868l0.092,0.438
		l0.61-0.641c0.072-0.11,0.043-0.199-0.085-0.269c-0.127-0.067-0.691-0.208-1.687-0.42c-0.009-0.036,0.002-0.077,0.032-0.122
		l0.107-0.164c0.175-0.265,0.653-0.25,1.439,0.044c0.182,0.057,0.31,0.078,0.385,0.064l0.091,0.438l0.782-1.191l-0.396-0.26
		c0.086,0.057,0.1,0.136,0.034,0.236c-0.066,0.099-0.248,0.146-0.543,0.14c-0.297-0.004-0.615-0.025-0.955-0.06
		c-0.341-0.034-0.671-0.07-0.994-0.108c-0.32-0.038-0.536-0.045-0.646-0.023l0.045,0.219c0.255-0.053,0.434-0.046,0.531,0.019
		c0.099,0.065,0.136,0.12,0.106,0.163C147.007,84.688,146.925,84.713,146.793,84.722z M147.786,80.545l1.465,0.726
		c0.286,0.187,0.491,0.392,0.613,0.615c0.122,0.223,0.371,0.457,0.748,0.704l-0.373,0.277c-0.221-0.051-0.533-0.09-0.938-0.12
		c-0.407-0.029-0.625-0.023-0.654,0.021l0.529,0.348l-0.252,0.023l1.124,0.738l0.76-1.158l0.274-0.056
		c-0.151-0.446-0.59-0.908-1.316-1.385l-0.132-0.087c-0.75-0.492-1.281-0.714-1.596-0.668l0.109-0.166
		C147.992,80.35,147.872,80.413,147.786,80.545z"/>
</g>
</svg>
