<?xml version="1.0" encoding="utf-8"?>
<!-- Generator: Adobe Illustrator 16.0.0, SVG Export Plug-In . SVG Version: 6.00 Build 0)  -->
<!DOCTYPE svg PUBLIC "-//W3C//DTD SVG 1.1//EN" "http://www.w3.org/Graphics/SVG/1.1/DTD/svg11.dtd">
<svg version="1.1" id="Layer_1" xmlns="http://www.w3.org/2000/svg" xmlns:xlink="http://www.w3.org/1999/xlink" x="0px" y="0px"
	 width="80px" height="80px" viewBox="0 0 80 80" enable-background="new 0 0 80 80" xml:space="preserve">
<circle fill="#99CC00" cx="40" cy="40" r="25"/>
<path opacity="0.3" fill="#FFFFFF" d="M38.564,17.228c-10.281,3.591-15.918,7.101-20.561,19.391
	C23.899,22.825,38.564,17.228,38.564,17.228z"/>
<rect x="15" y="29.962" opacity="0.5" fill="#FFFFFF" enable-background="new    " width="50" height="20.076"/>
<circle fill="#CC0000" cx="-15.345" cy="94.813" r="5.091"/>
<circle fill="#CC6600" cx="-2.601" cy="94.813" r="5.091"/>
<circle fill="#99CC00" cx="22.888" cy="94.813" r="5.091"/>
<circle fill="#00CCCC" cx="48.377" cy="94.813" r="5.091"/>
<circle fill="#CC9900" cx="10.144" cy="94.813" r="5.091"/>
<circle fill="#0066CC" cx="61.123" cy="94.813" r="5.091"/>
<circle fill="#33CC00" cx="35.633" cy="94.813" r="5.091"/>
<circle fill="#9900CC" cx="73.867" cy="94.813" r="5.091"/>
<circle fill="#CC0066" cx="86.611" cy="94.813" r="5.091"/>
<g>
	<text transform="matrix(1 0 0 1 20.0474 47.9785)" fill="#231F20" font-family="'NotoSerif'" font-size="21.3459">X95</text>
	
		<text transform="matrix(1 0 0 1 20.0474 47.9785)" fill="none" stroke="#231F20" stroke-linecap="round" stroke-linejoin="round" stroke-miterlimit="10" font-family="'NotoSerif'" font-size="21.3459">X95</text>
	<g>
		<text transform="matrix(1 0 0 1 19.0464 46.9775)" fill="#FFFFFF" font-family="'NotoSerif'" font-size="21.3459">X95</text>
		
			<text transform="matrix(1 0 0 1 19.0464 46.9775)" fill="none" stroke="#FFFFFF" stroke-width="0.8864" stroke-linecap="round" stroke-linejoin="round" stroke-miterlimit="10" font-family="'NotoSerif'" font-size="21.3459">X95</text>
	</g>
</g>
</svg>
