<?xml version="1.0" encoding="utf-8"?>
<!-- Generator: Adobe Illustrator 16.0.0, SVG Export Plug-In . SVG Version: 6.00 Build 0)  -->
<!DOCTYPE svg PUBLIC "-//W3C//DTD SVG 1.1//EN" "http://www.w3.org/Graphics/SVG/1.1/DTD/svg11.dtd">
<svg version="1.1" id="Layer_1" xmlns="http://www.w3.org/2000/svg" xmlns:xlink="http://www.w3.org/1999/xlink" x="0px" y="0px"
	 width="80px" height="80px" viewBox="0 0 80 80" enable-background="new 0 0 80 80" xml:space="preserve">
<circle fill="#803F00" cx="41" cy="41" r="27.5"/>
<circle fill="#CC6600" cx="40" cy="40" r="25"/>
<path opacity="0.3" fill="#FFFFFF" d="M38.564,17.228c-10.281,3.591-15.918,7.101-20.561,19.391
	C23.899,22.825,38.564,17.228,38.564,17.228z"/>
<g>
	<defs>
		<circle id="SVGID_1_" cx="40" cy="40" r="25"/>
	</defs>
	<clipPath id="SVGID_2_">
		<use xlink:href="#SVGID_1_"  overflow="visible"/>
	</clipPath>
	
		<rect x="15" y="29.962" opacity="0.5" clip-path="url(#SVGID_2_)" fill="#FFFFFF" enable-background="new    " width="50" height="20.076"/>
</g>
<g>
	<text transform="matrix(1 0 0 1 28.0762 47.8672)" fill="#231F20" font-family="'NotoSerif'" font-size="21.3459">14</text>
	
		<text transform="matrix(1 0 0 1 28.0762 47.8672)" fill="none" stroke="#231F20" stroke-linecap="round" stroke-linejoin="round" stroke-miterlimit="10" font-family="'NotoSerif'" font-size="21.3459">14</text>
	<g>
		<text transform="matrix(1 0 0 1 27.0752 46.8662)" fill="#FFFFFF" font-family="'NotoSerif'" font-size="21.3459">14</text>
		
			<text transform="matrix(1 0 0 1 27.0752 46.8662)" fill="none" stroke="#FFFFFF" stroke-width="0.8864" stroke-linecap="round" stroke-linejoin="round" stroke-miterlimit="10" font-family="'NotoSerif'" font-size="21.3459">14</text>
	</g>
</g>
<circle fill="#CC0000" cx="-15.345" cy="94.813" r="5.091"/>
<circle fill="#CC6600" cx="-2.601" cy="94.813" r="5.091"/>
<circle fill="#99CC00" cx="22.888" cy="94.813" r="5.091"/>
<circle fill="#00CCCC" cx="48.377" cy="94.813" r="5.091"/>
<circle fill="#CC9900" cx="10.144" cy="94.813" r="5.091"/>
<circle fill="#0066CC" cx="61.123" cy="94.813" r="5.091"/>
<circle fill="#33CC00" cx="35.633" cy="94.813" r="5.091"/>
<circle fill="#6600CC" cx="99.355" cy="94.813" r="5.091"/>
<circle fill="#9900CC" cx="73.867" cy="94.813" r="5.091"/>
<circle fill="#CC0066" cx="86.611" cy="94.813" r="5.091"/>
<g>
	<g>
		<path fill="#231F20" stroke="#231F20" stroke-width="0.5" stroke-miterlimit="10" d="M44.161,56.232l-2.33-0.34l-1.043-2.111
			c-0.133-0.27-0.572-0.268-0.705,0l-1.042,2.111l-2.329,0.34c-0.148,0.021-0.271,0.125-0.318,0.268
			c-0.045,0.142-0.007,0.298,0.1,0.402l1.686,1.643l-0.397,2.32c-0.025,0.147,0.035,0.296,0.156,0.385
			c0.068,0.049,0.149,0.074,0.231,0.074c0.063,0,0.125-0.015,0.182-0.045l2.085-1.095l2.085,1.095
			c0.132,0.069,0.291,0.057,0.414-0.029c0.121-0.089,0.182-0.237,0.156-0.385l-0.399-2.32l1.688-1.643
			c0.106-0.104,0.146-0.26,0.1-0.402S44.31,56.254,44.161,56.232z"/>
		<path fill="#231F20" stroke="#231F20" stroke-width="0.5" stroke-miterlimit="10" d="M56.459,54.236
			c-0.033-0.103-0.122-0.178-0.229-0.193l-1.687-0.246l-0.755-1.527c-0.096-0.193-0.414-0.193-0.51,0l-0.753,1.527l-1.687,0.246
			c-0.107,0.016-0.196,0.091-0.229,0.193c-0.033,0.104-0.006,0.216,0.072,0.292l1.22,1.188l-0.288,1.679
			c-0.019,0.106,0.025,0.214,0.113,0.278c0.089,0.063,0.204,0.072,0.3,0.021l1.507-0.793l1.51,0.793
			c0.041,0.021,0.087,0.032,0.132,0.032c0.059,0,0.118-0.019,0.167-0.054c0.088-0.064,0.132-0.172,0.113-0.278l-0.289-1.679
			l1.221-1.188C56.465,54.452,56.492,54.34,56.459,54.236z"/>
		<path fill="#231F20" stroke="#231F20" stroke-width="0.5" stroke-miterlimit="10" d="M30.033,54.043l-1.686-0.246l-0.754-1.527
			c-0.096-0.193-0.414-0.193-0.51,0l-0.754,1.527l-1.686,0.246c-0.107,0.016-0.196,0.091-0.229,0.193
			c-0.033,0.104-0.005,0.216,0.072,0.292l1.22,1.188l-0.289,1.679c-0.019,0.106,0.025,0.214,0.113,0.278
			c0.087,0.063,0.204,0.071,0.299,0.021l1.508-0.793l1.509,0.793c0.042,0.021,0.087,0.032,0.132,0.032
			c0.059,0,0.118-0.019,0.167-0.054c0.087-0.064,0.131-0.172,0.113-0.278l-0.289-1.679l1.22-1.188
			c0.078-0.076,0.105-0.188,0.072-0.292C30.229,54.134,30.14,54.059,30.033,54.043z"/>
	</g>
</g>
<g>
	<path fill="#FFFFFF" d="M43.604,55.676l-2.33-0.34l-1.042-2.111c-0.133-0.27-0.572-0.268-0.705,0l-1.042,2.111l-2.33,0.34
		c-0.148,0.021-0.271,0.125-0.317,0.268c-0.046,0.142-0.007,0.298,0.1,0.402l1.686,1.643l-0.398,2.32
		c-0.025,0.147,0.035,0.296,0.156,0.385c0.068,0.049,0.149,0.074,0.231,0.074c0.063,0,0.125-0.015,0.183-0.045l2.084-1.095
		l2.084,1.095c0.132,0.069,0.291,0.057,0.414-0.029c0.121-0.089,0.182-0.237,0.156-0.385l-0.399-2.32l1.688-1.643
		c0.106-0.104,0.146-0.26,0.1-0.402S43.752,55.697,43.604,55.676z"/>
	<path fill="#FFFFFF" d="M55.901,53.68c-0.033-0.103-0.122-0.178-0.229-0.193l-1.687-0.246l-0.755-1.527
		c-0.096-0.193-0.414-0.193-0.51,0l-0.753,1.527l-1.687,0.246c-0.107,0.016-0.196,0.091-0.229,0.193
		c-0.033,0.104-0.006,0.216,0.072,0.292l1.22,1.188l-0.288,1.679c-0.019,0.106,0.025,0.214,0.113,0.278
		c0.089,0.063,0.204,0.072,0.3,0.021l1.507-0.793l1.51,0.793c0.041,0.021,0.087,0.032,0.132,0.032c0.059,0,0.118-0.019,0.167-0.054
		c0.088-0.064,0.132-0.172,0.113-0.278l-0.289-1.679l1.221-1.188C55.907,53.896,55.935,53.783,55.901,53.68z"/>
	<path fill="#FFFFFF" d="M29.476,53.486L27.79,53.24l-0.754-1.527c-0.096-0.193-0.414-0.193-0.51,0l-0.754,1.527l-1.686,0.246
		c-0.107,0.016-0.196,0.091-0.229,0.193c-0.033,0.104-0.005,0.216,0.072,0.292l1.22,1.188l-0.289,1.679
		c-0.019,0.106,0.025,0.214,0.113,0.278c0.087,0.063,0.204,0.071,0.299,0.021l1.508-0.793l1.509,0.793
		c0.042,0.021,0.087,0.032,0.132,0.032c0.059,0,0.118-0.019,0.167-0.054c0.087-0.064,0.131-0.172,0.113-0.278l-0.289-1.679
		l1.22-1.188c0.078-0.076,0.105-0.188,0.072-0.292C29.672,53.577,29.583,53.502,29.476,53.486z"/>
</g>
</svg>
