<?xml version="1.0" encoding="utf-8"?>
<!-- Generator: Adobe Illustrator 16.0.0, SVG Export Plug-In . SVG Version: 6.00 Build 0)  -->
<!DOCTYPE svg PUBLIC "-//W3C//DTD SVG 1.1//EN" "http://www.w3.org/Graphics/SVG/1.1/DTD/svg11.dtd">
<svg version="1.1" id="Layer_1" xmlns="http://www.w3.org/2000/svg" xmlns:xlink="http://www.w3.org/1999/xlink" x="0px" y="0px"
	 width="200px" height="50px" viewBox="0 0 200 50" enable-background="new 0 0 200 50" xml:space="preserve">
<path fill="#737373" d="M189.994,45.406c0,2.573-2.086,4.66-4.66,4.66H18.655c-2.574,0-4.66-2.087-4.66-4.66V8.648
	c0-2.574,2.086-4.66,4.66-4.66h166.679c2.574,0,4.66,2.086,4.66,4.66V45.406z"/>
<path fill="#FFFFFF" d="M186.004,41.416c0,2.573-2.086,4.66-4.66,4.66H14.667c-2.574,0-4.66-2.087-4.66-4.66V4.66
	c0-2.574,2.086-4.66,4.66-4.66h166.677c2.574,0,4.66,2.086,4.66,4.66V41.416z"/>
<g>
	<path fill="#EC0088" d="M34.147,11.232V9.167H40v22.859l2.65,0.455v2.049h-8.503v-2.049l2.65-0.455V11.688L34.147,11.232z"/>
	<path fill="#EC0088" d="M44.764,25.573c0-2.602,0.704-4.745,2.113-6.431c1.409-1.685,3.322-2.528,5.739-2.528
		c2.428,0,4.349,0.84,5.764,2.521s2.122,3.826,2.122,6.438v0.357c0,2.623-0.705,4.769-2.113,6.438
		c-1.409,1.669-3.322,2.504-5.739,2.504c-2.439,0-4.363-0.838-5.772-2.513c-1.409-1.674-2.113-3.817-2.113-6.429V25.573z
		 M47.967,25.93c0,1.864,0.393,3.403,1.179,4.617c0.786,1.214,1.954,1.821,3.504,1.821c1.517,0,2.672-0.607,3.463-1.821
		s1.187-2.753,1.187-4.617v-0.357c0-1.843-0.396-3.376-1.187-4.602c-0.791-1.225-1.957-1.837-3.496-1.837s-2.699,0.612-3.479,1.837
		c-0.781,1.225-1.171,2.759-1.171,4.602V25.93z"/>
	<path fill="#EC0088" d="M63.445,26.06c0-2.829,0.618-5.11,1.854-6.844c1.235-1.734,2.942-2.602,5.121-2.602
		c1.105,0,2.076,0.217,2.91,0.65c0.835,0.434,1.534,1.063,2.098,1.886l0.292-2.211h2.699v17.364c0,2.276-0.634,4.067-1.902,5.373
		c-1.268,1.307-3.073,1.959-5.414,1.959c-0.846,0-1.762-0.116-2.748-0.35c-0.987-0.232-1.854-0.55-2.602-0.95l0.829-2.488
		c0.596,0.314,1.301,0.574,2.114,0.78s1.604,0.31,2.374,0.31c1.431,0,2.479-0.401,3.146-1.203c0.667-0.803,1-1.946,1-3.431v-1.675
		c-0.575,0.737-1.263,1.296-2.065,1.675s-1.723,0.569-2.764,0.569c-2.157,0-3.854-0.781-5.089-2.342
		c-1.236-1.561-1.854-3.604-1.854-6.129V26.06z M66.647,26.401c0,1.767,0.374,3.187,1.122,4.26c0.748,1.072,1.886,1.609,3.414,1.609
		c0.965,0,1.772-0.22,2.423-0.658c0.65-0.439,1.187-1.06,1.609-1.862v-8.096c-0.412-0.748-0.949-1.341-1.609-1.78
		c-0.662-0.439-1.458-0.659-2.39-0.659c-1.528,0-2.672,0.64-3.431,1.918c-0.759,1.279-1.138,2.921-1.138,4.926V26.401z"/>
	<path fill="#EC0088" d="M90.547,32.481l2.65-0.455V19.459l-2.65-0.455v-2.065H96.4v15.087l2.65,0.455v2.049h-8.503V32.481z
		 M96.4,12.436h-3.203V9.167H96.4V12.436z"/>
	<path fill="#EC0088" d="M101.018,32.481l2.65-0.455V19.459l-2.65-0.455v-2.065h5.512l0.228,2.618
		c0.585-0.932,1.319-1.655,2.203-2.17c0.883-0.515,1.889-0.772,3.016-0.772c1.896,0,3.366,0.556,4.406,1.667
		c1.041,1.111,1.561,2.827,1.561,5.146v8.6l2.65,0.455v2.049h-8.503v-2.049l2.65-0.455v-8.535c0-1.55-0.307-2.65-0.919-3.3
		s-1.548-0.976-2.805-0.976c-0.921,0-1.737,0.222-2.447,0.667c-0.71,0.445-1.275,1.052-1.698,1.821v10.324l2.649,0.455v2.049h-8.503
		V32.481z"/>
</g>
<text transform="matrix(1 0 0 1 33.1392 -66.4692)" fill="#EC0088" font-family="'RobotoSlab-Regular'" font-size="33.2972">log in</text>
<g>
	<g>
		<g>
			<path fill="#EC0088" d="M158.434,23.8L139.75,11.651c-0.438-0.286-1-0.308-1.463-0.057c-0.461,0.25-0.749,0.733-0.749,1.257
				v24.298c0,0.524,0.288,1.007,0.749,1.256c0.214,0.116,0.448,0.175,0.683,0.175c0.272,0,0.545-0.077,0.78-0.23l18.683-12.15
				c0.406-0.263,0.651-0.715,0.651-1.2C159.086,24.515,158.839,24.064,158.434,23.8z"/>
		</g>
		<path fill="#EC5EB0" d="M146.498,18.092c-6.167-4.497-6.866-4.864-7.247-4.483c-0.391,0.392-0.272,2.646-0.247,9.541
			c0.447-3.913,0.884-7.102,2.231-7.102C142.584,16.047,146.498,18.092,146.498,18.092z"/>
	</g>
</g>
</svg>
