<?xml version="1.0" encoding="utf-8"?>
<!-- Generator: Adobe Illustrator 16.0.0, SVG Export Plug-In . SVG Version: 6.00 Build 0)  -->
<!DOCTYPE svg PUBLIC "-//W3C//DTD SVG 1.1//EN" "http://www.w3.org/Graphics/SVG/1.1/DTD/svg11.dtd">
<svg version="1.1" id="Layer_1" xmlns="http://www.w3.org/2000/svg" xmlns:xlink="http://www.w3.org/1999/xlink" x="0px" y="0px"
	 width="32.76px" height="25px" viewBox="0 0 32.76 25" enable-background="new 0 0 32.76 25" xml:space="preserve">
<g>
	<path fill="#E74332" d="M16.465,0h-2.34c-0.23,0-0.455,0.073-0.643,0.21L5.411,6.848H1.087C0.487,6.848,0,7.334,0,7.935v9.132
		c0,0.602,0.487,1.087,1.087,1.087h4.324l8.072,6.637C13.67,24.926,13.895,25,14.125,25h2.34c0.6,0,1.086-0.486,1.086-1.087V1.087
		C17.551,0.486,17.064,0,16.465,0z"/>
	<path fill="#E74332" d="M29.719,12.5l2.713-2.646c0.209-0.204,0.328-0.484,0.328-0.777s-0.119-0.573-0.328-0.778l-2.34-2.282
		c-0.422-0.412-1.096-0.412-1.518,0l-2.75,2.683l-2.752-2.683c-0.422-0.413-1.098-0.411-1.52,0.003l-2.305,2.265
		c-0.207,0.204-0.324,0.482-0.324,0.772c-0.002,0.292,0.115,0.57,0.322,0.774l2.688,2.664l-2.719,2.651
		c-0.211,0.206-0.328,0.486-0.328,0.779c0,0.292,0.117,0.573,0.328,0.776l2.34,2.282c0.211,0.206,0.484,0.311,0.76,0.311
		c0.273,0,0.547-0.104,0.758-0.311l2.752-2.683l2.75,2.683c0.422,0.412,1.096,0.412,1.518,0l2.34-2.282
		c0.209-0.203,0.328-0.484,0.328-0.776c0-0.293-0.119-0.573-0.328-0.779L29.719,12.5z"/>
</g>
</svg>
