<?xml version="1.0" encoding="utf-8"?>
<!-- Generator: Adobe Illustrator 16.0.0, SVG Export Plug-In . SVG Version: 6.00 Build 0)  -->
<!DOCTYPE svg PUBLIC "-//W3C//DTD SVG 1.1//EN" "http://www.w3.org/Graphics/SVG/1.1/DTD/svg11.dtd">
<svg version="1.1" id="Layer_1" xmlns="http://www.w3.org/2000/svg" xmlns:xlink="http://www.w3.org/1999/xlink" x="0px" y="0px"
	 width="25px" height="25px" viewBox="0 0 25 25" enable-background="new 0 0 25 25" xml:space="preserve">
<g>
	<path fill="#E74332" d="M9.553,0H3.51C2.889,0,2.386,0.504,2.386,1.125v22.752C2.386,24.498,2.889,25,3.51,25h6.043
		c0.621,0,1.124-0.502,1.124-1.123V1.125C10.677,0.504,10.174,0,9.553,0z"/>
	<path fill="#E74332" d="M21.491,0h-6.045c-0.621,0-1.122,0.503-1.122,1.124v22.752c0,0.621,0.501,1.123,1.122,1.123h6.045
		c0.62,0,1.123-0.502,1.123-1.123V1.125C22.614,0.504,22.111,0,21.491,0z"/>
</g>
</svg>
