<?xml version="1.0" encoding="utf-8"?>
<!-- Generator: Adobe Illustrator 16.0.0, SVG Export Plug-In . SVG Version: 6.00 Build 0)  -->
<!DOCTYPE svg PUBLIC "-//W3C//DTD SVG 1.1//EN" "http://www.w3.org/Graphics/SVG/1.1/DTD/svg11.dtd">
<svg version="1.1" id="Layer_1" xmlns="http://www.w3.org/2000/svg" xmlns:xlink="http://www.w3.org/1999/xlink" x="0px" y="0px"
	 width="28.338px" height="30px" viewBox="0 0 28.338 30" enable-background="new 0 0 28.338 30" xml:space="preserve">
<g>
	<path fill="#076A8A" d="M10.51-0.021c5.806,0,10.511,4.783,10.511,10.684c0,5.901-4.705,10.685-10.511,10.685
		C4.706,21.348,0,16.563,0,10.663C0,4.763,4.706-0.021,10.51-0.021z"/>
	<path fill="#EB008A" d="M17.979,2.569c5.805,0,10.51,4.783,10.51,10.684c0,5.901-4.705,10.685-10.51,10.685
		S7.469,19.152,7.469,13.253C7.469,7.353,12.174,2.569,17.979,2.569z"/>
	<path fill="#02A5D8" d="M12.076,8.652c5.805,0,10.51,4.783,10.51,10.684c0,5.9-4.705,10.684-10.51,10.684
		c-5.804,0-10.51-4.783-10.51-10.684C1.566,13.436,6.272,8.652,12.076,8.652z"/>
</g>
</svg>
