<?xml version="1.0" encoding="utf-8"?>
<!-- Generator: Adobe Illustrator 16.0.0, SVG Export Plug-In . SVG Version: 6.00 Build 0)  -->
<!DOCTYPE svg PUBLIC "-//W3C//DTD SVG 1.1//EN" "http://www.w3.org/Graphics/SVG/1.1/DTD/svg11.dtd">
<svg version="1.1" id="Layer_1" xmlns="http://www.w3.org/2000/svg" xmlns:xlink="http://www.w3.org/1999/xlink" x="0px" y="0px"
	 width="100.918px" height="50px" viewBox="0 0 100.918 50" enable-background="new 0 0 100.918 50" xml:space="preserve">
<g>
	<path fill="#FFFFFF" d="M24.34,0h52.235c13.444,0,24.342,11.193,24.342,25l0,0c0,13.807-10.897,25-24.342,25H24.34
		C10.897,50,0,38.807,0,25l0,0C0,11.193,10.897,0,24.34,0z"/>
</g>
<defs>
	<filter id="Adobe_OpacityMaskFilter" filterUnits="userSpaceOnUse" x="0" y="0" width="100.917" height="50">
		<feColorMatrix  type="matrix" values="1 0 0 0 0  0 1 0 0 0  0 0 1 0 0  0 0 0 1 0"/>
	</filter>
</defs>
<mask maskUnits="userSpaceOnUse" x="0" y="0" width="100.917" height="50" id="SVGID_1_">
	<g filter="url(#Adobe_OpacityMaskFilter)">
		
			<image overflow="visible" enable-background="new    " width="106" height="55" xlink:href="7E7167C8.jpg"  transform="matrix(1 0 0 1 -2.5 -2.5)">
		</image>
	</g>
</mask>
<g opacity="0.75" mask="url(#SVGID_1_)">
	<path fill="#FFFFFF" d="M24.34,0h52.235c13.444,0,24.342,11.193,24.342,25l0,0c0,13.807-10.897,25-24.342,25H24.34
		C10.897,50,0,38.807,0,25l0,0C0,11.193,10.897,0,24.34,0z"/>
</g>
<g>
	<g>
		<path fill="#076A8A" d="M25.752,14.195v-1.214c1.045-0.39,1.733-1.054,1.733-1.807C27.485,9.973,25.733,9,23.572,9
			c-2.161,0-3.913,0.974-3.913,2.175c0,0.753,0.688,1.417,1.733,1.807v1.214c-5.863,1.032-10.318,6.146-10.318,12.306
			C11.073,33.402,16.669,39,23.572,39c6.903,0,12.498-5.598,12.498-12.5C36.07,20.341,31.615,15.227,25.752,14.195z M23.572,35.195
			c-4.802,0-8.695-3.893-8.695-8.694s3.893-8.695,8.695-8.695c4.802,0,8.695,3.893,8.695,8.695S28.374,35.195,23.572,35.195z"/>
		<path fill="#076A8A" d="M23.572,19.436c-0.48,0-0.87,0.39-0.87,0.87V26.5c0,0.48,0.39,0.869,0.87,0.869
			c0.48,0,0.87-0.389,0.87-0.869v-6.195C24.441,19.825,24.052,19.436,23.572,19.436z"/>
	</g>
</g>
</svg>
