<?xml version="1.0" encoding="utf-8"?>
<!-- Generator: Adobe Illustrator 16.0.0, SVG Export Plug-In . SVG Version: 6.00 Build 0)  -->
<!DOCTYPE svg PUBLIC "-//W3C//DTD SVG 1.1//EN" "http://www.w3.org/Graphics/SVG/1.1/DTD/svg11.dtd">
<svg version="1.1" id="Layer_1" xmlns="http://www.w3.org/2000/svg" xmlns:xlink="http://www.w3.org/1999/xlink" x="0px" y="0px"
	 width="30px" height="30px" viewBox="0 0 30 30" enable-background="new 0 0 30 30" xml:space="preserve">
<path fill="#E74332" d="M28.792,25.374c0.943,0.944,0.943,2.474,0,3.418c-0.944,0.943-2.474,0.943-3.418,0L1.208,4.626
	c-0.944-0.943-0.944-2.474,0-3.417c0.944-0.944,2.474-0.944,3.417,0L28.792,25.374z"/>
<path fill="#E74332" d="M4.625,28.791c-0.944,0.943-2.473,0.943-3.417,0c-0.944-0.944-0.944-2.474,0-3.418L25.372,1.208
	c0.944-0.944,2.476-0.944,3.42,0c0.943,0.944,0.943,2.474,0,3.417L4.625,28.791z"/>
</svg>
